<?xml version="1.0" standalone="no"?>
<!DOCTYPE svg PUBLIC "-//W3C//DTD SVG 1.1//EN" "http://www.w3.org/Graphics/SVG/1.1/DTD/svg11.dtd" >
<svg xmlns="http://www.w3.org/2000/svg" xmlns:xlink="http://www.w3.org/1999/xlink" version="1.1">
<metadata>
Created by FontForge 20161003 at Thu May 24 14:43:23 2018
 By www-data
Copyright  2012 The Monotype Corporation. All rights reserved. This font software may not be reproduced, modified, disclosed or transferred without the express written approval of The Monotype Corporation.
</metadata>
<defs>
<font id="GillSans-SemiBold" horiz-adv-x="0" >
  <font-face 
    font-family="Gill Sans"
    font-weight="600"
    font-stretch="normal"
    units-per-em="2048"
    panose-1="2 11 7 2 2 1 4 2 2 3"
    ascent="1487"
    descent="-561"
    x-height="934"
    cap-height="1397"
    bbox="-1162 -512 2279 1931"
    underline-thickness="102"
    underline-position="-409"
    unicode-range="U+0020-FB02"
  />
<missing-glyph horiz-adv-x="748" 
d="M68 0v1365h544v-1365h-544zM136 68h408v1229h-408v-1229z" />
    <glyph glyph-name="fi" unicode="fi" horiz-adv-x="1087" 
d="M834 1366q57 0 98 -41t41 -98q0 -55 -40.5 -97.5t-98.5 -42.5q-57 0 -98.5 41.5t-41.5 98.5q0 56 42.5 97.5t97.5 41.5zM956 934v-934h-245v934h245zM516 1415q74 0 125 -20v-201q-23 6 -74 6q-89 0 -132.5 -46t-43.5 -153v-67h160v-186h-160v-748h-246v748h-133v186h133
v70q0 189 101.5 300t269.5 111z" />
    <glyph glyph-name="fl" unicode="fl" horiz-adv-x="1087" 
d="M956 1397v-1397h-245v1397h245zM516 1415q74 0 125 -20v-201q-23 6 -74 6q-89 0 -132.5 -46t-43.5 -153v-67h160v-186h-160v-748h-246v748h-133v186h133v70q0 189 101.5 300t269.5 111z" />
    <glyph glyph-name=".notdef" horiz-adv-x="748" 
d="M68 0v1365h544v-1365h-544zM136 68h408v1229h-408v-1229z" />
    <glyph glyph-name=".null" 
 />
    <glyph glyph-name="nonmarkingreturn" horiz-adv-x="682" 
 />
    <glyph glyph-name="space" unicode=" " horiz-adv-x="569" 
 />
    <glyph glyph-name="exclam" unicode="!" horiz-adv-x="555" 
d="M279 1415q143 0 143 -260q0 -141 -38 -396t-62 -306q-16 -35 -43 -35q-30 0 -46 31q-22 39 -61 286t-41 420q0 260 148 260zM276 289q60 0 107 -47t47 -107q0 -61 -46 -107t-108 -46q-63 0 -108 45.5t-45 107.5t46 108t107 46z" />
    <glyph glyph-name="quotedbl" unicode="&#x22;" horiz-adv-x="866" 
d="M338 1466v-243l-47 -279h-137l-48 279v243h232zM760 1466v-243l-47 -279h-138l-47 279v243h232z" />
    <glyph glyph-name="numbersign" unicode="#" horiz-adv-x="1196" 
d="M580 1419l-80 -385h338l80 385h192l-82 -385h168v-186h-205l-63 -303h268v-187h-309l-80 -383h-193l80 383h-336l-79 -383h-195l80 383h-164v187h203l63 303h-266v186h305l82 385h193zM461 848l-64 -303h336l64 303h-336z" />
    <glyph glyph-name="dollar" unicode="$" horiz-adv-x="1110" 
d="M647 1415v-74q76 -4 161 -35.5t150 -76.5v-238q-142 117 -311 148v-365q174 -47 277.5 -157.5t103.5 -249.5q0 -154 -106.5 -260t-274.5 -125v-226h-172v226q-84 8 -187 49t-182 92v246q191 -157 369 -189v412q-180 53 -278.5 149t-98.5 232q0 148 103.5 249t273.5 119
v74h172zM317 991q0 -109 158 -160v308q-71 -11 -114.5 -51.5t-43.5 -96.5zM647 184q82 16 123 60.5t41 107.5q0 127 -164 183v-351z" />
    <glyph glyph-name="percent" unicode="%" horiz-adv-x="1434" 
d="M373 1415q85 0 159.5 -43t118 -118.5t43.5 -161.5t-43 -160.5t-118 -118t-160 -43.5q-87 0 -162.5 43t-118.5 118t-43 161q0 87 44 162.5t119.5 118t160.5 42.5zM1278 1415l-952 -1433h-168l952 1433h168zM219 1092q0 -65 45 -111.5t109 -46.5q63 0 107 45.5t44 112.5
q0 66 -43.5 112.5t-107.5 46.5q-63 0 -108.5 -47t-45.5 -112zM1065 627q85 0 160.5 -44t118 -118.5t42.5 -161.5q0 -86 -43 -160t-117.5 -117.5t-160.5 -43.5q-87 0 -162 42.5t-118.5 117.5t-43.5 161t44 161.5t120 119t160 43.5zM911 303q0 -68 46 -113t108 -45t107 44.5
t45 113.5q0 63 -44.5 111.5t-107.5 48.5q-64 0 -109 -48t-45 -112z" />
    <glyph glyph-name="ampersand" unicode="&#x26;" horiz-adv-x="1419" 
d="M647 1397q160 0 266.5 -90.5t106.5 -231.5q0 -102 -63.5 -190t-194.5 -174l192 -222q85 85 156 222h254q-100 -240 -256 -394l281 -317h-349l-129 147q-106 -88 -204.5 -126.5t-235.5 -38.5q-169 0 -285 102t-116 250q0 123 83.5 220.5t237.5 180.5q-73 92 -107 166.5
t-34 151.5q0 153 111.5 248.5t285.5 95.5zM504 1073q0 -46 37 -106.5t86 -104.5q73 45 116 91t43 108q0 57 -40 95t-103 38q-56 0 -97.5 -34t-41.5 -87zM340 352q0 -67 51.5 -113t122.5 -46q120 0 254 116l-240 269q-88 -56 -138 -109.5t-50 -116.5z" />
    <glyph glyph-name="quotesingle" unicode="'" horiz-adv-x="444" 
d="M338 1466v-243l-47 -279h-137l-48 279v243h232z" />
    <glyph glyph-name="parenleft" unicode="(" horiz-adv-x="733" 
d="M713 1415q-164 -194 -248 -425t-84 -517q0 -283 83 -515.5t249 -428.5h-164q-206 181 -322 435.5t-116 508.5q0 256 117 510t321 432h164z" />
    <glyph glyph-name="parenright" unicode=")" horiz-adv-x="733" 
d="M184 1415q197 -168 318 -426t121 -516q0 -256 -117 -509t-322 -435h-164q170 203 251 434t81 510q0 286 -83.5 516.5t-248.5 425.5h164z" />
    <glyph glyph-name="asterisk" unicode="*" horiz-adv-x="887" 
d="M358 1386q0 42 22.5 71.5t65.5 29.5q45 0 64.5 -29.5t19.5 -71.5q0 -13 -1 -25t-48 -249l19 -10l174 151q23 20 43.5 32.5t48.5 12.5q35 0 59.5 -24t24.5 -60q0 -38 -27 -62.5t-61 -35.5l-227 -80l-3 -18l230 -80q86 -30 86 -98q0 -34 -23.5 -59t-58.5 -25
q-22 0 -46.5 11.5t-39.5 25.5l-184 161l-17 -8q49 -249 49 -256v-16q0 -51 -23 -78t-63 -27q-46 0 -66 29.5t-20 71.5l8 52l42 226l-15 8l-182 -157q-44 -39 -86 -39q-34 0 -60 23t-26 61q0 29 24.5 56t63.5 40l231 82l2 14l-233 82q-86 32 -86 101q0 34 23.5 57.5
t58.5 23.5q31 0 56.5 -17t45.5 -34l170 -147l15 10l-39 207q-11 46 -11 67z" />
    <glyph glyph-name="plus" unicode="+" horiz-adv-x="1196" 
d="M709 1223v-389h389v-222h-389v-389h-222v389h-389v222h389v389h222z" />
    <glyph glyph-name="comma" unicode="," horiz-adv-x="504" 
d="M246 274q80 0 128 -58.5t48 -158.5q0 -131 -87 -232.5t-218 -123.5v53q96 81 96 211v15l-2 16q-113 21 -113 137q0 59 42.5 100t105.5 41z" />
    <glyph glyph-name="hyphen" unicode="-" horiz-adv-x="674" 
d="M596 582v-236h-518v236h518z" />
    <glyph glyph-name="period" unicode="." horiz-adv-x="504" 
d="M252 289q61 0 107.5 -45t46.5 -109q0 -62 -45 -107.5t-109 -45.5q-63 0 -108.5 45.5t-45.5 107.5q0 64 46 109t108 45z" />
    <glyph glyph-name="slash" unicode="/" horiz-adv-x="575" 
d="M559 1415l-373 -1433h-178l373 1433h178z" />
    <glyph glyph-name="zero" unicode="0" horiz-adv-x="1081" 
d="M543 1415q212 0 336.5 -191t124.5 -522q0 -334 -123 -527t-336 -193q-216 0 -341.5 191.5t-125.5 524.5q0 332 125 524.5t340 192.5zM338 690q0 -479 205 -479q200 0 200 504q0 471 -202 471q-203 0 -203 -496z" />
    <glyph glyph-name="one" unicode="1" horiz-adv-x="1081" 
d="M668 1397v-1397h-256v1397h256z" />
    <glyph glyph-name="two" unicode="2" horiz-adv-x="1081" 
d="M471 1415q199 0 316.5 -113.5t117.5 -302.5q0 -144 -87.5 -312t-307.5 -445h479v-242h-905v29q158 195 271.5 350.5t175.5 258t88 174.5t26 149q0 96 -61.5 161.5t-149.5 65.5q-158 0 -328 -180v274q179 133 365 133z" />
    <glyph glyph-name="three" unicode="3" horiz-adv-x="1081" 
d="M455 1415q194 0 313 -96.5t119 -255.5q0 -215 -195 -320q112 -40 169 -130.5t57 -215.5q0 -186 -130 -300.5t-342 -114.5q-167 0 -321 79v246q85 -57 156 -82.5t145 -25.5q98 0 160.5 55.5t62.5 144.5q0 98 -69 156.5t-189 58.5h-16v217h12q112 0 175 49.5t63 133.5
q0 83 -61 133.5t-156 50.5q-118 0 -248 -63v219q131 61 295 61z" />
    <glyph glyph-name="four" unicode="4" horiz-adv-x="1081" 
d="M862 1415v-815h119v-205h-119v-395h-256v395h-571v164l680 856h147zM600 991l-309 -391h315v391h-6z" />
    <glyph glyph-name="five" unicode="5" horiz-adv-x="1081" 
d="M883 1397v-236h-443v-301l26 2h21q128 0 232 -55.5t162.5 -155.5t58.5 -225q0 -197 -132.5 -320.5t-348.5 -123.5q-192 0 -340 79v234q156 -96 299 -96q112 0 187 62.5t75 158.5q0 108 -86 168.5t-234 60.5q-70 0 -155 -18v766h678z" />
    <glyph glyph-name="six" unicode="6" horiz-adv-x="1081" 
d="M885 1415q-112 -93 -247.5 -275t-193.5 -319q78 33 160 33q108 0 196.5 -54.5t137.5 -151t49 -214.5q0 -125 -58 -229t-160 -163.5t-222 -59.5q-204 0 -330.5 137.5t-126.5 357.5q0 219 131.5 469t358.5 469h305zM350 434q0 -97 54.5 -160t140.5 -63q84 0 136 59.5
t52 157.5q0 92 -53.5 152.5t-138.5 60.5q-82 0 -136.5 -59.5t-54.5 -147.5z" />
    <glyph glyph-name="seven" unicode="7" horiz-adv-x="1081" 
d="M1032 1397v-8l-563 -1407l-236 88l441 1087h-557v240h915z" />
    <glyph glyph-name="eight" unicode="8" horiz-adv-x="1081" 
d="M543 1415q187 0 305.5 -109t118.5 -282q0 -189 -172 -297q108 -57 156 -141t48 -197q0 -116 -59 -209.5t-164 -145.5t-233 -52q-200 0 -329.5 114t-129.5 293q0 119 51 201.5t154 136.5q-172 109 -172 299q0 172 119.5 280.5t306.5 108.5zM373 1020q0 -90 48 -147.5
t122 -57.5q72 0 120 59.5t48 145.5q0 91 -45.5 144t-122.5 53q-78 0 -124 -52t-46 -145zM344 401q0 -103 54 -162t145 -59t143.5 59.5t52.5 157.5t-54 161t-140 63q-90 0 -145.5 -59.5t-55.5 -160.5z" />
    <glyph glyph-name="nine" unicode="9" horiz-adv-x="1081" 
d="M535 1415q132 0 237 -62t162 -174.5t57 -258.5q0 -220 -133.5 -475t-355.5 -463h-305q119 103 252 280.5t188 312.5q-75 -32 -160 -32q-166 0 -274.5 118.5t-108.5 303.5q0 122 57 225.5t159 164t225 60.5zM348 969q0 -93 53 -153t140 -60q82 0 136 60.5t54 144.5
q0 100 -54.5 162.5t-141.5 62.5q-84 0 -135.5 -60t-51.5 -157z" />
    <glyph glyph-name="colon" unicode=":" horiz-adv-x="504" 
d="M252 934q63 0 108.5 -44t45.5 -112q0 -63 -46.5 -107t-107.5 -44q-63 0 -108.5 45.5t-45.5 107.5q0 63 44 108.5t110 45.5zM252 289q63 0 108.5 -46t45.5 -106q0 -65 -46 -110t-108 -45q-63 0 -108.5 45.5t-45.5 107.5q0 63 44 108.5t110 45.5z" />
    <glyph glyph-name="semicolon" unicode=";" horiz-adv-x="504" 
d="M252 934q63 0 108.5 -46.5t45.5 -107.5q0 -63 -44.5 -108t-109.5 -45q-63 0 -108.5 45.5t-45.5 107.5q0 63 44 108.5t110 45.5zM246 274q80 0 128 -58.5t48 -158.5q0 -131 -87 -232.5t-218 -123.5v53q96 81 96 211v15l-2 16q-113 21 -113 137q0 59 42.5 100t105.5 41z
" />
    <glyph glyph-name="less" unicode="&#x3c;" horiz-adv-x="1196" 
d="M1094 1024l-734 -297l734 -299v-233l-990 426v210l990 426v-233z" />
    <glyph glyph-name="equal" unicode="=" horiz-adv-x="1196" 
d="M1098 1057v-221h-1000v221h1000zM1098 610v-221h-1000v221h1000z" />
    <glyph glyph-name="greater" unicode="&#x3e;" horiz-adv-x="1196" 
d="M102 1257l990 -426v-210l-990 -426v233l734 299l-734 297v233z" />
    <glyph glyph-name="question" unicode="?" horiz-adv-x="729" 
d="M305 1415q154 0 245 -80t91 -211q0 -86 -37 -175.5t-133 -219.5q-66 -89 -98.5 -156t-32.5 -127q0 -24 -12 -39.5t-31 -15.5q-45 0 -77 66t-32 145q0 70 29 142.5t92 166.5q70 104 70 181q0 55 -33.5 86.5t-93.5 31.5q-71 0 -137 -53h-13l39 223q20 11 78.5 23t85.5 12z
M319 289q60 0 107 -47t47 -107q0 -59 -45.5 -106t-108.5 -47t-108 45.5t-45 107.5q0 61 46.5 107.5t106.5 46.5z" />
    <glyph glyph-name="at" unicode="@" horiz-adv-x="2032" 
d="M1094 1473q245 0 440.5 -97t304.5 -274.5t109 -399.5q0 -189 -87.5 -356t-236 -265.5t-311.5 -98.5q-168 0 -189 137q-131 -137 -284 -137q-105 0 -192 55.5t-136 155.5t-49 223q0 164 75.5 319t195 242.5t253.5 87.5q90 0 164.5 -39.5t122.5 -118.5l31 131h225
l-164 -764l-6 -36q0 -72 55 -72q57 0 154 80.5t154 204t57 254.5q0 172 -87 310.5t-246.5 216t-365.5 77.5q-242 0 -429 -105t-294.5 -303.5t-107.5 -439.5q0 -230 101.5 -396t298 -257t454.5 -91q249 0 421 75.5t273 207.5h201q-122 -221 -343.5 -335t-539.5 -114
q-302 0 -541 110.5t-365 313t-126 478.5q0 208 75.5 405t206.5 333.5t315.5 209t412.5 72.5zM688 410q0 -115 54 -189t145 -74q84 0 159 69.5t124 190t49 234.5q0 117 -56 188.5t-151 71.5q-86 0 -161 -68.5t-119 -183.5t-44 -239z" />
    <glyph glyph-name="A" unicode="A" horiz-adv-x="1489" 
d="M862 1397l617 -1397h-285l-145 340h-621l-135 -340h-283l576 1397h276zM510 545h451l-236 553z" />
    <glyph glyph-name="B" unicode="B" horiz-adv-x="1286" 
d="M666 1397q192 0 313 -100t121 -250q0 -96 -50.5 -169t-146.5 -116v-12q146 -33 227.5 -130.5t81.5 -228.5q0 -116 -59.5 -207.5t-165 -137.5t-248.5 -46h-585v1397h512zM594 817q107 0 169 51t62 142q0 81 -57 128.5t-150 47.5h-194v-369h170zM657 211q137 0 207 51.5
t70 151.5q0 89 -69.5 140.5t-186.5 51.5h-254v-395h233z" />
    <glyph glyph-name="C" unicode="C" horiz-adv-x="1485" 
d="M887 1415q119 0 233 -27t246 -92v-254q-129 74 -238.5 107t-228.5 33q-149 0 -269 -61.5t-186.5 -173.5t-66.5 -249q0 -140 66 -251t186 -171.5t270 -60.5q115 0 219.5 33t263.5 119v-254q-136 -71 -250 -101t-266 -30q-221 0 -395 88t-273.5 253.5t-99.5 362.5
q0 211 102.5 379t282 259t404.5 91z" />
    <glyph glyph-name="D" unicode="D" horiz-adv-x="1583" 
d="M739 1397q218 0 388 -89t264 -250t94 -362q0 -205 -94.5 -363.5t-268.5 -245.5t-399 -87h-569v1397h585zM711 211q224 0 359.5 134.5t135.5 352.5q0 226 -136.5 357t-367.5 131h-278v-975h287z" />
    <glyph glyph-name="E" unicode="E" horiz-adv-x="1169" 
d="M1057 1397v-211h-633v-367h606v-211h-606v-397h647v-211h-917v1397h903z" />
    <glyph glyph-name="F" unicode="F" horiz-adv-x="1098" 
d="M1006 1397v-211h-582v-361h582v-213h-582v-612h-270v1397h852z" />
    <glyph glyph-name="G" unicode="G" horiz-adv-x="1561" 
d="M887 1415q258 0 512 -115v-247q-254 129 -500 129q-153 0 -272 -61t-184.5 -175.5t-65.5 -255.5q0 -214 142.5 -344.5t375.5 -130.5q64 0 122.5 11t139.5 42v232h-231v211h501v-576q-103 -72 -247.5 -112.5t-300.5 -40.5q-221 0 -400.5 91t-280 255t-100.5 366
q0 205 101.5 371t283 258t404.5 92z" />
    <glyph glyph-name="H" unicode="H" horiz-adv-x="1573" 
d="M424 1397v-588h725v588h270v-1397h-270v590h-725v-590h-270v1397h270z" />
    <glyph glyph-name="I" unicode="I" horiz-adv-x="590" 
d="M430 1397v-1397h-270v1397h270z" />
    <glyph glyph-name="J" unicode="J" horiz-adv-x="590" 
d="M430 1397v-1344q0 -224 -120 -358.5t-318 -134.5h-26.5t-26.5 2l-19 233q240 0 240 281v1321h270z" />
    <glyph glyph-name="K" unicode="K" horiz-adv-x="1393" 
d="M424 1397v-645h6l512 645h307l-520 -658l674 -739h-346l-633 686v-686h-270v1397h270z" />
    <glyph glyph-name="L" unicode="L" horiz-adv-x="1133" 
d="M424 1397v-1186h678v-211h-948v1397h270z" />
    <glyph glyph-name="M" unicode="M" horiz-adv-x="1710" 
d="M397 1397l459 -551l459 551h241v-1397h-270v981h-8l-404 -492h-38l-404 492h-8v-981h-270v1397h243z" />
    <glyph glyph-name="N" unicode="N" horiz-adv-x="1638" 
d="M391 1397l830 -975v975h264v-1397h-232l-835 991v-991h-264v1397h237z" />
    <glyph glyph-name="O" unicode="O" horiz-adv-x="1739" 
d="M870 1415q217 0 390.5 -89.5t276.5 -258t103 -369.5q0 -196 -100.5 -363.5t-276 -260t-395.5 -92.5q-217 0 -394.5 94t-276.5 258.5t-99 363.5q0 192 99 361t273 262.5t400 93.5zM377 698q0 -139 63 -250t175.5 -172t254.5 -61q215 0 353.5 135t138.5 348
q0 139 -62.5 250.5t-176 172.5t-255.5 61t-255.5 -61.5t-174.5 -172t-61 -250.5z" />
    <glyph glyph-name="P" unicode="P" horiz-adv-x="1196" 
d="M694 1397q196 0 318.5 -113.5t122.5 -292.5q0 -181 -124 -293t-327 -112h-260v-586h-270v1397h540zM627 797q108 0 168.5 49.5t60.5 146.5q0 193 -248 193h-184v-389h203z" />
    <glyph glyph-name="Q" unicode="Q" horiz-adv-x="1739" 
d="M881 1415q211 0 385.5 -93.5t274 -259.5t99.5 -362q0 -159 -67.5 -302t-191 -244t-279.5 -140l-2 -14q224 -106 399 -106q65 0 121 16l8 -12l-225 -203q-340 22 -729 307q-164 32 -297.5 134t-206 249t-72.5 309q0 196 101 367t277 262.5t405 91.5zM377 696
q0 -214 137 -347.5t360 -133.5q138 0 250.5 61.5t175 171.5t62.5 246q0 140 -62 252t-174.5 174t-251.5 62q-223 0 -360 -133.5t-137 -352.5z" />
    <glyph glyph-name="R" unicode="R" horiz-adv-x="1319" 
d="M657 1397q197 0 321 -109t124 -284q0 -119 -61.5 -207.5t-182.5 -139.5q67 -36 119 -98t129 -209q128 -254 190 -350h-301q-31 46 -84 147q-116 223 -170 300.5t-104 110t-115 32.5h-98v-590h-270v1397h503zM596 801q106 0 166.5 53t60.5 145q0 96 -60 143.5t-171 47.5
h-168v-389h172z" />
    <glyph glyph-name="S" unicode="S" horiz-adv-x="1094" 
d="M559 1415q204 0 393 -102v-240q-217 131 -385 131q-102 0 -159.5 -39.5t-57.5 -105.5q0 -79 107 -146q30 -20 231 -112q172 -81 248 -180t76 -238q0 -180 -129.5 -290.5t-335.5 -110.5q-134 0 -230.5 29.5t-216.5 101.5v266q224 -186 422 -186q99 0 160 43t61 114
q0 97 -106 158q-88 48 -227 115q-165 75 -246.5 175t-81.5 232q0 176 131 280.5t346 104.5z" />
    <glyph glyph-name="T" unicode="T" horiz-adv-x="1364" 
d="M1313 1397v-211h-496v-1186h-270v1186h-496v211h1262z" />
    <glyph glyph-name="U" unicode="U" horiz-adv-x="1563" 
d="M414 1397v-813q0 -125 37.5 -199t122.5 -122t198 -48q124 0 210.5 45.5t126.5 124t40 217.5v795h270v-830q0 -282 -169 -433.5t-478 -151.5q-194 0 -336.5 69t-217.5 199.5t-75 306.5v840h271z" />
    <glyph glyph-name="V" unicode="V" horiz-adv-x="1368" 
d="M295 1397l395 -897l385 897h283l-617 -1415h-94l-637 1415h285z" />
    <glyph glyph-name="W" unicode="W" horiz-adv-x="2228" 
d="M287 1397l348 -862l366 862h228l368 -865l347 865h276l-575 -1415h-91l-440 1036l-442 -1036h-88l-576 1415h279z" />
    <glyph glyph-name="X" unicode="X" horiz-adv-x="1563" 
d="M395 1397l385 -473l379 473h336l-547 -674l598 -723h-342l-424 522l-424 -522h-340l592 723l-553 674h340z" />
    <glyph glyph-name="Y" unicode="Y" horiz-adv-x="1346" 
d="M336 1397l338 -467l342 467h321l-528 -705v-692h-270v694l-531 703h328z" />
    <glyph glyph-name="Z" unicode="Z" horiz-adv-x="1358" 
d="M1303 1397l-814 -1186h818v-211h-1282l813 1186h-764v211h1229z" />
    <glyph glyph-name="bracketleft" unicode="[" horiz-adv-x="801" 
d="M766 1397v-197h-340v-1456h340v-197h-592v1850h592z" />
    <glyph glyph-name="backslash" unicode="\" horiz-adv-x="575" 
d="M195 1415l372 -1433h-178l-373 1433h179z" />
    <glyph glyph-name="bracketright" unicode="]" horiz-adv-x="801" 
d="M627 1397v-1850h-592v197h340v1456h-340v197h592z" />
    <glyph glyph-name="asciicircum" unicode="^" horiz-adv-x="1087" 
d="M641 1397l360 -799h-237l-219 537l-217 -537h-242l369 799h186z" />
    <glyph glyph-name="underscore" unicode="_" horiz-adv-x="1024" 
d="M1036 -154v-102h-1048v102h1048z" />
    <glyph glyph-name="grave" unicode="`" horiz-adv-x="682" 
d="M336 1364l145 -299h-133l-291 299h279z" />
    <glyph glyph-name="a" unicode="a" horiz-adv-x="989" 
d="M459 952q180 0 275 -76.5t95 -213.5v-457q0 -53 43 -53q18 0 50.5 15.5t54.5 35.5v-142q-129 -79 -236 -79q-66 0 -101.5 22t-49.5 78q-141 -100 -283 -100q-101 0 -173.5 68t-72.5 163q0 121 72 191t252 122l199 58v43q0 137 -166 137q-85 0 -169 -39t-153 -115v221
q153 121 363 121zM309 250q0 -51 32.5 -82t80.5 -31q81 0 162 74v246q-103 -35 -161.5 -66t-86 -63t-27.5 -78z" />
    <glyph glyph-name="b" unicode="b" horiz-adv-x="1124" 
d="M369 1397v-523q109 78 247 78q123 0 223.5 -60.5t156 -170t55.5 -244.5q0 -230 -137 -362.5t-375 -132.5q-214 0 -416 79v1336h246zM369 195q79 -27 184 -27q113 0 179.5 82.5t66.5 228.5q0 132 -67 210.5t-177 78.5q-51 0 -94 -19t-92 -59v-495z" />
    <glyph glyph-name="c" unicode="c" horiz-adv-x="944" 
d="M571 952q163 0 295 -63v-209q-131 76 -248 76q-126 0 -206 -78.5t-80 -212.5q0 -131 80.5 -211t214.5 -80q100 0 256 66v-199q-145 -59 -299 -59q-227 0 -368.5 130t-141.5 345q0 223 138.5 359t358.5 136z" />
    <glyph glyph-name="d" unicode="d" horiz-adv-x="1122" 
d="M754 913v484h245v-1397h-432q-224 0 -358.5 129t-134.5 352q0 132 62.5 240t172 169.5t236.5 61.5q98 0 209 -39zM625 188h129v541q-76 39 -158 39q-123 0 -196.5 -77t-73.5 -202q0 -301 299 -301z" />
    <glyph glyph-name="e" unicode="e" horiz-adv-x="1057" 
d="M541 952q206 0 326 -132t120 -365v-37h-661q15 -125 93.5 -192.5t215.5 -67.5q88 0 169.5 30.5t168.5 92.5v-183q-164 -116 -398 -116q-221 0 -361 133t-140 354q0 213 129.5 348t337.5 135zM756 567q-10 102 -62 159.5t-143 57.5q-93 0 -149.5 -55t-71.5 -162h426z" />
    <glyph glyph-name="f" unicode="f" horiz-adv-x="559" 
d="M516 1415q43 0 88.5 -8t73.5 -21v-200q-51 14 -111 14q-89 0 -132.5 -46t-43.5 -153v-67h160v-186h-160v-748h-246v748h-133v186h133v70q0 189 101.5 300t269.5 111z" />
    <glyph glyph-name="g" unicode="g" horiz-adv-x="1004" 
d="M985 934v-174h-160q39 -48 54.5 -88.5t15.5 -87.5q0 -112 -84 -205q-74 -81 -254 -105q-97 -12 -128.5 -27.5t-31.5 -47.5q0 -29 38.5 -44.5t123.5 -29.5q211 -34 310.5 -104t99.5 -185q0 -148 -121 -227.5t-348 -79.5q-215 0 -342 75t-127 201q0 178 245 246
q-106 46 -106 121q0 98 160 135v4q-109 30 -173.5 107t-64.5 180q0 151 114 243.5t298 92.5h481zM319 596q0 -73 51.5 -121.5t125.5 -48.5q76 0 125 50.5t49 127.5q0 69 -51 115.5t-123 46.5q-74 0 -125.5 -50.5t-51.5 -119.5zM260 -184q0 -125 250 -125q108 0 169.5 34.5
t61.5 90.5q0 62 -69.5 93.5t-196.5 31.5q-95 0 -155 -35.5t-60 -89.5z" />
    <glyph glyph-name="h" unicode="h" horiz-adv-x="1108" 
d="M369 1397v-594h6q119 149 287 149q149 0 240 -98t91 -256v-598h-245v551q0 94 -44.5 149.5t-121.5 55.5q-56 0 -105.5 -32t-107.5 -106v-618h-246v1397h246z" />
    <glyph glyph-name="i" unicode="i" horiz-adv-x="508" 
d="M254 1366q57 0 98 -41t41 -98q0 -55 -40.5 -97.5t-98.5 -42.5q-56 0 -97.5 42.5t-41.5 97.5q0 58 42 98.5t97 40.5zM377 934v-934h-246v934h246z" />
    <glyph glyph-name="j" unicode="j" horiz-adv-x="508" 
d="M254 1366q55 0 96 -41t41 -98q0 -58 -40.5 -99t-96.5 -41t-97.5 42.5t-41.5 97.5q0 58 42 98.5t97 40.5zM377 934v-1012q0 -156 -71 -256.5t-208 -136.5l-114 209q147 35 147 219v977h246z" />
    <glyph glyph-name="k" unicode="k" horiz-adv-x="1061" 
d="M369 1397v-1397h-246v1397h246zM1047 934l-379 -461l426 -473h-312l-409 473l385 461h289z" />
    <glyph glyph-name="l" unicode="l" horiz-adv-x="508" 
d="M377 1397v-1397h-246v1397h246z" />
    <glyph glyph-name="m" unicode="m" horiz-adv-x="1733" 
d="M664 952q108 0 182.5 -50.5t111.5 -135.5q79 97 157.5 141.5t172.5 44.5q148 0 239 -96.5t91 -257.5v-598h-246v557q0 97 -41.5 153t-120.5 56q-113 0 -217 -145v-621h-245v561q0 96 -44 150.5t-118 54.5q-60 0 -110 -34.5t-107 -110.5v-621h-246v934h246v-131
q67 76 136 112.5t159 36.5z" />
    <glyph glyph-name="n" unicode="n" horiz-adv-x="1108" 
d="M664 952q150 0 239.5 -98.5t89.5 -259.5v-594h-245v569q0 91 -43.5 144t-118.5 53q-57 0 -107 -33.5t-110 -111.5v-621h-246v934h246v-131q68 80 139.5 114.5t155.5 34.5z" />
    <glyph glyph-name="o" unicode="o" horiz-adv-x="1174" 
d="M586 952q146 0 265 -61t184 -171t65 -249q0 -145 -62.5 -254t-184 -172t-267.5 -63q-147 0 -267 63t-182.5 172t-62.5 254q0 141 66 250.5t184 170t262 60.5zM332 471q0 -140 68.5 -223.5t183.5 -83.5q120 0 189 80t69 229q0 142 -69.5 219.5t-188.5 77.5
q-112 0 -182 -82t-70 -217z" />
    <glyph glyph-name="p" unicode="p" horiz-adv-x="1122" 
d="M604 952q200 0 322.5 -134t122.5 -349q0 -141 -57.5 -252t-163.5 -173t-240 -62q-109 0 -219 55v-508h-246v1405h244v-60q111 78 237 78zM369 217q92 -53 172 -53q116 0 186 83t70 214q0 143 -62.5 224t-177.5 81q-43 0 -83 -14.5t-105 -61.5v-473z" />
    <glyph glyph-name="q" unicode="q" horiz-adv-x="1124" 
d="M754 20q-108 -38 -209 -38q-127 0 -236.5 61.5t-172 170t-62.5 239.5q0 147 61 256t173 167t259 58h432v-1405h-245v491zM625 745q-299 0 -299 -301q0 -126 73.5 -202t196.5 -76q82 0 158 39v540h-129z" />
    <glyph glyph-name="r" unicode="r" horiz-adv-x="856" 
d="M657 952q49 0 96.5 -22t110.5 -74l-88 -215q-107 80 -172 80q-57 0 -112.5 -42.5t-89 -112.5t-33.5 -140v-426h-246v934h246v-238h4q67 135 135 195.5t149 60.5z" />
    <glyph glyph-name="s" unicode="s" horiz-adv-x="827" 
d="M426 952q77 0 145 -17.5t144 -55.5v-197q-70 45 -150 72.5t-143 27.5q-53 0 -83 -20t-30 -57q0 -21 25 -42t137 -77q160 -81 224.5 -149.5t64.5 -164.5q0 -135 -94 -212.5t-254 -77.5q-100 0 -186.5 22t-143.5 53v205q180 -100 303 -100q63 0 102 22.5t39 59.5
q0 22 -14 40t-42 37t-175 91q-113 54 -167 117.5t-54 150.5q0 124 97 198t255 74z" />
    <glyph glyph-name="t" unicode="t" horiz-adv-x="756" 
d="M379 1182h20v-248h320v-186h-320v-431q0 -63 38 -102t104 -39q86 0 198 62v-197q-133 -59 -250 -59q-158 0 -246.5 86t-88.5 233v447h-146v40z" />
    <glyph glyph-name="u" unicode="u" horiz-adv-x="1106" 
d="M360 934v-578q0 -91 45.5 -138.5t120.5 -47.5q62 0 119 38t92 107v619h246v-934h-246v127q-133 -145 -288 -145q-150 0 -242 98t-92 256v598h245z" />
    <glyph glyph-name="v" unicode="v" horiz-adv-x="977" 
d="M268 934l224 -541l219 541h262l-422 -952h-119l-428 952h264z" />
    <glyph glyph-name="w" unicode="w" horiz-adv-x="1546" 
d="M256 934l217 -539l221 539h160l219 -539l217 539h256l-416 -952h-104l-252 571l-252 -571h-102l-420 952h256z" />
    <glyph glyph-name="x" unicode="x" horiz-adv-x="1083" 
d="M299 934l233 -293l224 293h295l-375 -459l403 -475h-295l-252 309l-241 -309h-287l387 475l-387 459h295z" />
    <glyph glyph-name="y" unicode="y" horiz-adv-x="979" 
d="M268 934l221 -502l224 502h264l-645 -1405h-264l297 643l-363 762h266z" />
    <glyph glyph-name="z" unicode="z" horiz-adv-x="971" 
d="M926 934l-486 -750h488v-184h-897l487 748h-450v186h858z" />
    <glyph glyph-name="braceleft" unicode="{" horiz-adv-x="739" 
d="M694 1284h-20q-51 0 -86 -3.5t-57 -23t-32 -60.5t-10 -116v-159q0 -156 -44 -244.5t-146 -149.5q80 -49 117 -97.5t55 -119.5t18 -178v-153q0 -103 13.5 -140t48 -52t125.5 -15h18v-203h-65q-135 0 -207.5 36.5t-111 115t-38.5 206.5v185q0 161 -46.5 237t-159.5 76h-7
v203q111 0 162 73.5t51 235.5v186q0 178 78.5 270.5t251.5 92.5h92v-203z" />
    <glyph glyph-name="bar" unicode="|" horiz-adv-x="557" 
d="M375 1536v-2048h-193v2048h193z" />
    <glyph glyph-name="braceright" unicode="}" horiz-adv-x="739" 
d="M45 1487h90q170 0 251 -87.5t81 -271.5v-184q0 -167 49.5 -241t163.5 -74v-201q-113 0 -163 -73.5t-50 -233.5v-191q0 -186 -82 -273t-256 -87h-84v203h29q88 0 119.5 16t44 55.5t12.5 132.5v160q0 157 42.5 243t147.5 148q-104 62 -147 151t-43 245v182
q0 79 -13.5 114.5t-49 49.5t-128.5 14h-14v203z" />
    <glyph glyph-name="asciitilde" unicode="~" horiz-adv-x="1196" 
d="M358 743q40 0 87.5 -12t101 -34.5t69.5 -30.5q104 -49 153.5 -64.5t92.5 -15.5q69 0 140.5 38.5t152.5 106.5v-223q-63 -59 -150 -99t-163 -40q-58 0 -127.5 24.5t-188.5 78.5q-121 54 -182 54q-64 0 -130 -30.5t-173 -116.5v225q84 68 160 103.5t157 35.5z" />
    <glyph glyph-name="nonbreakingspace" unicode="&#xa0;" horiz-adv-x="569" 
 />
    <glyph glyph-name="exclamdown" unicode="&#xa1;" horiz-adv-x="555" 
d="M276 -473q-143 0 -143 260q0 141 38 396t62 306q16 35 43 35q29 0 46 -30q22 -39 61 -287t41 -420q0 -260 -148 -260zM279 653q-60 0 -107 47t-47 107q0 62 46 108t108 46q63 0 108 -45.5t45 -108.5q0 -62 -46 -108t-107 -46z" />
    <glyph glyph-name="cent" unicode="&#xa2;" horiz-adv-x="944" 
d="M776 1282h125l-123 -364q56 -17 82 -29v-209q-74 44 -139 61l-189 -557q38 -10 89 -10q100 0 256 66v-199q-147 -59 -299 -59q-67 0 -109 8l-127 -377h-125l137 407q-139 56 -212.5 170t-73.5 267q0 145 62.5 258.5t177 175t257.5 61.5q62 0 99 -8zM326 465
q0 -150 100 -229l174 520q-123 -4 -198.5 -83.5t-75.5 -207.5z" />
    <glyph glyph-name="sterling" unicode="&#xa3;" horiz-adv-x="1081" 
d="M819 1415q30 0 62 -6l114 -238q-69 15 -116 15q-120 0 -202.5 -96t-133.5 -299h143v-216h-205l-73 -321q29 8 71 8q35 0 160 -18q125 -19 188 -19q105 0 170 35v-240q-86 -38 -194 -38q-39 0 -166 21q-128 20 -207 20q-152 0 -324 -41q0 18 5.5 49t59.5 262.5t69 281.5
h-119v216h176l39 124q81 261 206.5 380.5t276.5 119.5z" />
    <glyph glyph-name="currency" unicode="&#xa4;" horiz-adv-x="1130" 
d="M188 1190l140 -141q104 73 237 73q128 0 238 -73l139 141l115 -119l-139 -137q71 -109 71 -236q0 -126 -71 -235l139 -135l-115 -119l-139 139q-115 -74 -238 -74q-132 0 -237 74l-140 -139l-114 119l139 135q-72 111 -72 235q0 125 72 236l-139 137zM305 698
q0 -107 75.5 -183.5t182.5 -76.5t183.5 76.5t76.5 183.5q0 110 -76.5 185t-185.5 75q-102 0 -179 -75.5t-77 -184.5z" />
    <glyph glyph-name="yen" unicode="&#xa5;" horiz-adv-x="1130" 
d="M260 1397l301 -590h8l297 590h264l-352 -647h287v-175h-381v-145h381v-174h-381v-256h-238v256h-380v174h380v145h-380v175h286l-352 647h260z" />
    <glyph glyph-name="brokenbar" unicode="&#xa6;" horiz-adv-x="557" 
d="M375 1382v-716h-193v716h193zM375 358v-716h-193v716h193z" />
    <glyph glyph-name="section" unicode="&#xa7;" horiz-adv-x="961" 
d="M506 1415q143 0 230 -56t87 -145q0 -55 -37.5 -95t-93.5 -40q-84 0 -108 121q-12 60 -84 60q-59 0 -94 -33.5t-35 -85.5q0 -50 37.5 -100t160.5 -146q179 -138 256.5 -250t77.5 -244q0 -94 -35 -169.5t-135 -174.5q45 -63 64.5 -115.5t19.5 -115.5q0 -131 -100.5 -214
t-263.5 -83q-134 0 -226 58t-92 147q0 52 41 94.5t94 42.5q43 0 74 -35t33 -84q1 -31 16.5 -49t63.5 -18q55 0 93 34.5t38 83.5q0 52 -42.5 111.5t-142.5 136.5q-126 97 -201 178.5t-110 155.5t-35 170q0 95 38.5 177.5t121.5 162.5q-40 59 -59 107t-19 102q0 135 104 223
t263 88zM340 770q-68 -79 -68 -158q0 -75 48 -143.5t145 -151.5l149 -129q74 80 74 164q0 75 -46.5 140.5t-234.5 220.5z" />
    <glyph glyph-name="dieresis" unicode="&#xa8;" horiz-adv-x="682" 
d="M141 1321q48 0 81.5 -33.5t33.5 -81.5q0 -47 -33.5 -81.5t-81.5 -34.5q-47 0 -81.5 34.5t-34.5 81.5q0 48 34 81.5t82 33.5zM541 1321q48 0 82 -34t34 -81q0 -48 -34.5 -82t-81.5 -34q-46 0 -80.5 33t-34.5 83q0 48 33.5 81.5t81.5 33.5z" />
    <glyph glyph-name="copyright" unicode="&#xa9;" horiz-adv-x="1542" 
d="M782 1157q258 0 338 -239l-143 -35q-58 145 -203 145q-106 0 -167.5 -80t-61.5 -219q0 -137 60.5 -216t164.5 -79q77 0 133.5 48t79.5 134l143 -47q-35 -130 -126.5 -198t-225.5 -68q-175 0 -281 117t-106 313q0 193 109 308.5t286 115.5zM10 733q0 203 100 378
t278.5 278.5t383.5 103.5q209 0 385 -102.5t275.5 -279.5t99.5 -378q0 -210 -102.5 -386t-278.5 -276t-379 -100q-205 0 -383.5 104t-278.5 277.5t-100 380.5zM150 733q0 -170 84.5 -314t226.5 -226t309 -82q169 0 314 84t228 227t83 311q0 166 -84 310t-228 227.5
t-313 83.5q-166 0 -309.5 -82.5t-227 -228t-83.5 -310.5z" />
    <glyph glyph-name="ordfeminine" unicode="&#xaa;" horiz-adv-x="659" 
d="M305 1415q118 0 184 -46.5t66 -127.5v-268q0 -16 3.5 -21.5t12.5 -5.5q20 0 78 39v-104q-88 -52 -164 -52q-80 0 -104 52q-86 -52 -174 -52q-72 0 -120 43t-48 105q0 52 31 90.5t98 66t205 60.5q0 56 -20 77t-72 21q-59 0 -111 -25.5t-109 -82.5v155q99 76 244 76z
M221 995q0 -28 17 -43.5t45 -15.5q48 0 90 35v133q-101 -34 -126.5 -55t-25.5 -54z" />
    <glyph glyph-name="guillemotleft" unicode="&#xab;" horiz-adv-x="1143" 
d="M602 924l-315 -459l315 -457h-242l-317 457l317 459h242zM1092 924l-316 -459l316 -457h-242l-318 457l318 459h242z" />
    <glyph glyph-name="logicalnot" unicode="&#xac;" horiz-adv-x="1196" 
d="M1098 1057v-668h-221v447h-779v221h1000z" />
    <glyph glyph-name="softhyphen" unicode="&#xad;" horiz-adv-x="674" 
d="M596 582v-236h-518v236h518z" />
    <glyph glyph-name="registered" unicode="&#xae;" horiz-adv-x="1542" 
d="M844 1133q112 0 182 -61.5t70 -160.5q0 -95 -61 -159t-163 -72v-4q44 -15 80.5 -50.5t100.5 -144.5l96 -162h-184l-38 72q-49 100 -92.5 161.5t-75.5 83t-89 21.5h-68v-338h-149v814h391zM786 780q73 0 112.5 30.5t39.5 86.5t-41.5 85.5t-110.5 29.5h-184v-232h184z
M10 733q0 203 100 378t278.5 278.5t383.5 103.5q209 0 385 -102.5t275.5 -279.5t99.5 -378q0 -210 -102.5 -386t-278.5 -276t-379 -100q-205 0 -383.5 104t-278.5 277.5t-100 380.5zM150 733q0 -170 84.5 -314t226.5 -226t309 -82q169 0 314 84t228 227t83 311
q0 166 -84 310t-228 227.5t-313 83.5q-166 0 -309.5 -82.5t-227 -228t-83.5 -310.5z" />
    <glyph glyph-name="macron" unicode="&#xaf;" horiz-adv-x="1130" 
d="M-35 1495v133h1200v-133h-1200z" />
    <glyph glyph-name="degree" unicode="&#xb0;" horiz-adv-x="809" 
d="M406 1491q123 0 211 -88.5t88 -212.5q0 -122 -87 -210.5t-212 -88.5q-123 0 -212.5 87t-89.5 212q0 126 88.5 213.5t213.5 87.5zM250 1190q0 -64 44.5 -109t111.5 -45q65 0 109 44.5t44 109.5q0 66 -44.5 111t-108.5 45q-63 0 -109.5 -46t-46.5 -110z" />
    <glyph glyph-name="plusminus" unicode="&#xb1;" horiz-adv-x="1196" 
d="M709 1303v-390h389v-221h-389v-389h-222v389h-389v221h389v390h222zM1098 221v-221h-1000v221h1000z" />
    <glyph glyph-name="twosuperior" unicode="&#xb2;" horiz-adv-x="674" 
d="M303 1415q124 0 196 -59.5t72 -157.5q0 -75 -57 -167t-174 -216h283v-135h-560v20q150 161 208.5 235.5t90 134t31.5 108.5q0 48 -30.5 78t-81.5 30q-95 0 -205 -110v167q103 72 227 72z" />
    <glyph glyph-name="threesuperior" unicode="&#xb3;" horiz-adv-x="674" 
d="M287 1415q117 0 191.5 -51.5t74.5 -134.5q0 -54 -26 -92.5t-83 -69.5q127 -47 127 -178q0 -97 -81.5 -158t-210.5 -61q-94 0 -201 47v143q61 -35 101 -48t89 -13q56 0 86.5 24.5t30.5 67.5q0 98 -147 102v123h6q65 0 98 24t33 66q0 41 -32.5 64.5t-84.5 23.5
q-68 0 -160 -43v129q83 35 189 35z" />
    <glyph glyph-name="acute" unicode="&#xb4;" horiz-adv-x="682" 
d="M623 1364l-289 -299h-133l145 299h277z" />
    <glyph glyph-name="mu" unicode="&#xb5;" horiz-adv-x="1122" 
d="M354 930v-641q103 -127 209 -127q84 0 130 60.5t46 164.5v543h234v-664q0 -40 14.5 -62t40.5 -22q19 0 70 23v-166q-116 -57 -213 -57q-94 0 -111 86q-82 -82 -182 -82q-76 0 -128 29t-110 104v-588h-233v1399h233z" />
    <glyph glyph-name="paragraph" unicode="&#xb6;" horiz-adv-x="1122" 
d="M1118 1466v-217h-127v-1657h-209v1657h-176v-1657h-209v1049q-188 14 -292.5 122t-104.5 288q0 193 120 304t329 111h669z" />
    <glyph glyph-name="periodcentered" unicode="&#xb7;" horiz-adv-x="504" 
d="M252 854q62 0 108 -46t46 -108q0 -64 -46.5 -108.5t-107.5 -44.5q-63 0 -108.5 45.5t-45.5 107.5q0 64 46 109t108 45z" />
    <glyph glyph-name="cedilla" unicode="&#xb8;" horiz-adv-x="682" 
d="M336 10h121l-23 -57q121 -40 121 -139q0 -85 -60.5 -133t-175.5 -48q-44 0 -114 15v108l53 -4q59 0 85 18t26 44q0 20 -19.5 37.5t-64.5 17.5h-17z" />
    <glyph glyph-name="onesuperior" unicode="&#xb9;" horiz-adv-x="674" 
d="M428 1415v-735h-182v735h182z" />
    <glyph glyph-name="ordmasculine" unicode="&#xba;" horiz-adv-x="784" 
d="M391 1415q148 0 245 -82.5t97 -208.5q0 -129 -96 -212t-246 -83q-147 0 -243.5 82.5t-96.5 208.5t95.5 210.5t244.5 84.5zM240 1120q0 -81 40.5 -127.5t112.5 -46.5t111 48.5t39 133.5q0 84 -40 127t-114 43q-68 0 -108.5 -44t-40.5 -134z" />
    <glyph glyph-name="guillemotright" unicode="&#xbb;" horiz-adv-x="1143" 
d="M293 924l317 -459l-317 -457h-242l316 457l-316 459h242zM782 924l318 -459l-318 -457h-241l315 457l-315 459h241z" />
    <glyph glyph-name="onequarter" unicode="&#xbc;" horiz-adv-x="1784" 
d="M430 1415v-735h-180v735h180zM1315 1415l-957 -1470h-168l957 1470h168zM1309 735h102v-418h74v-114h-74v-203h-176v203h-332v90zM1235 483l-152 -166h152v166z" />
    <glyph glyph-name="onehalf" unicode="&#xbd;" horiz-adv-x="1784" 
d="M430 1415v-735h-182v735h182zM1315 1415l-956 -1470h-168l956 1470h168zM1274 737q124 0 196 -59.5t72 -157.5q0 -75 -57 -167t-174 -216h283v-135h-560v20q150 161 208.5 235.5t90 134t31.5 108.5q0 48 -30.5 78t-81.5 30q-95 0 -205 -110v167q103 72 227 72z" />
    <glyph glyph-name="threequarters" unicode="&#xbe;" horiz-adv-x="1784" 
d="M350 1415q117 0 192.5 -50.5t75.5 -135.5q0 -107 -108 -162q127 -49 127 -178q0 -99 -81.5 -159t-211.5 -60q-91 0 -199 47v143q50 -31 94 -46t97 -15q54 0 84.5 24.5t30.5 67.5q0 99 -148 102v123h10q60 0 93.5 24t33.5 66t-31 65t-85 23q-68 0 -158 -43v129
q83 35 184 35zM1432 1415l-957 -1470h-168l957 1470h168zM1425 735h103v-418h74v-114h-74v-203h-176v203h-332v90zM1352 483l-152 -166h152v166z" />
    <glyph glyph-name="questiondown" unicode="&#xbf;" horiz-adv-x="729" 
d="M424 -473q-153 0 -244.5 79t-91.5 212q0 86 37 175.5t133 219.5q66 89 98.5 156t32.5 127q0 24 12.5 39.5t30.5 15.5q45 0 77 -66t32 -145q0 -64 -27.5 -137t-93.5 -172q-70 -104 -70 -181q0 -55 33.5 -86.5t93.5 -31.5q71 0 137 53h13l-39 -223q-20 -11 -79 -23t-85 -12
zM410 653q-60 0 -107 47t-47 107q0 63 46.5 108.5t107.5 45.5q63 0 108 -45.5t45 -108.5q0 -61 -46.5 -107.5t-106.5 -46.5z" />
    <glyph glyph-name="Agrave" unicode="&#xc0;" horiz-adv-x="1489" 
d="M680 1837l190 -344h-151l-377 344h338zM862 1397l617 -1397h-285l-145 340h-621l-135 -340h-283l576 1397h276zM510 545h451l-236 553z" />
    <glyph glyph-name="Aacute" unicode="&#xc1;" horiz-adv-x="1489" 
d="M1079 1837l-377 -344h-151l190 344h338zM862 1397l617 -1397h-285l-145 340h-621l-135 -340h-283l576 1397h276zM510 545h451l-236 553z" />
    <glyph glyph-name="Acircumflex" unicode="&#xc2;" horiz-adv-x="1489" 
d="M897 1827l217 -334h-156l-225 203l-223 -203h-152l211 334h328zM862 1397l617 -1397h-285l-145 340h-621l-135 -340h-283l576 1397h276zM510 545h451l-236 553z" />
    <glyph glyph-name="Atilde" unicode="&#xc3;" horiz-adv-x="1489" 
d="M582 1782q41 0 88.5 -17.5t93 -38t85 -38t66.5 -17.5q31 0 52.5 27.5t27.5 81.5h129q-6 -130 -68 -206.5t-159 -76.5q-55 0 -101 15.5t-112 50.5q-29 13 -49 22t-34 14t-25 7t-23 2q-35 0 -53.5 -27.5t-26.5 -83.5h-127q6 134 71 209.5t165 75.5zM862 1397l617 -1397
h-285l-145 340h-621l-135 -340h-283l576 1397h276zM510 545h451l-236 553z" />
    <glyph glyph-name="Adieresis" unicode="&#xc4;" horiz-adv-x="1489" 
d="M623 1659q0 -51 -39 -92t-95 -41q-53 0 -94 39t-41 94q0 54 41 93.5t94 39.5q54 0 94 -40t40 -93zM1116 1659q0 -54 -39.5 -93.5t-93.5 -39.5q-53 0 -93 38.5t-40 94.5q0 54 39.5 93.5t93.5 39.5q52 0 92.5 -40t40.5 -93zM862 1397l617 -1397h-285l-145 340h-621
l-135 -340h-283l576 1397h276zM510 545h451l-236 553z" />
    <glyph glyph-name="Aring" unicode="&#xc5;" horiz-adv-x="1489" 
d="M954 1712q0 -90 -63 -154.5t-156 -64.5q-91 0 -155 63.5t-64 155.5q0 89 64.5 154t154.5 65q91 0 155 -66t64 -153zM735 1593q50 0 84.5 36.5t34.5 82.5q0 47 -36 83t-85 36q-45 0 -81 -35.5t-36 -83.5q0 -50 35 -84.5t84 -34.5zM862 1397l617 -1397h-285l-145 340h-621
l-135 -340h-283l576 1397h276zM510 545h451l-236 553z" />
    <glyph glyph-name="AE" unicode="&#xc6;" horiz-adv-x="2038" 
d="M1925 1397v-211h-633v-383h606v-207h-606v-385h647v-211h-917v596h-381l-356 -596h-289l831 1397h1098zM762 801h260v440h-4z" />
    <glyph glyph-name="Ccedilla" unicode="&#xc7;" horiz-adv-x="1485" 
d="M887 1415q119 0 233 -27t246 -92v-254q-129 74 -238.5 107t-228.5 33q-149 0 -270 -62.5t-186.5 -173t-65.5 -248.5q0 -140 66 -251t186 -171.5t270 -60.5q115 0 219.5 33t263.5 119v-254q-147 -76 -263.5 -103.5t-264.5 -27.5h-29l-12 -33q121 -39 121 -139
q0 -82 -58 -131.5t-178 -49.5q-54 0 -114 15v108l53 -4q50 0 80.5 15.5t30.5 46.5q0 20 -20 37.5t-66 17.5h-15l62 129q-175 24 -315 121t-218 247.5t-78 323.5q0 211 102.5 379t282 259t404.5 91z" />
    <glyph glyph-name="Egrave" unicode="&#xc8;" horiz-adv-x="1169" 
d="M610 1837l191 -344h-152l-377 344h338zM1057 1397v-211h-633v-367h606v-211h-606v-397h647v-211h-917v1397h903z" />
    <glyph glyph-name="Eacute" unicode="&#xc9;" horiz-adv-x="1169" 
d="M932 1837l-377 -344h-152l191 344h338zM1057 1397v-211h-633v-367h606v-211h-606v-397h647v-211h-917v1397h903z" />
    <glyph glyph-name="Ecircumflex" unicode="&#xca;" horiz-adv-x="1169" 
d="M786 1827l218 -334h-156l-225 203l-224 -203h-151l211 334h327zM1057 1397v-211h-633v-367h606v-211h-606v-397h647v-211h-917v1397h903z" />
    <glyph glyph-name="Edieresis" unicode="&#xcb;" horiz-adv-x="1169" 
d="M481 1659q0 -54 -39.5 -93.5t-93.5 -39.5q-55 0 -95 39.5t-40 93.5q0 52 40 92.5t95 40.5q54 0 93.5 -40t39.5 -93zM975 1659q0 -51 -39 -92t-94 -41q-53 0 -93 38.5t-40 94.5q0 54 39.5 93.5t93.5 39.5t93.5 -41t39.5 -92zM1057 1397v-211h-633v-367h606v-211h-606v-397
h647v-211h-917v1397h903z" />
    <glyph glyph-name="Igrave" unicode="&#xcc;" horiz-adv-x="590" 
d="M252 1837l190 -344h-151l-377 344h338zM430 1397v-1397h-270v1397h270z" />
    <glyph glyph-name="Iacute" unicode="&#xcd;" horiz-adv-x="590" 
d="M686 1837l-377 -344h-151l190 344h338zM430 1397v-1397h-270v1397h270z" />
    <glyph glyph-name="Icircumflex" unicode="&#xce;" horiz-adv-x="590" 
d="M438 1821l211 -336h-176l-178 178l-178 -178h-174l209 336h286zM430 1397v-1397h-270v1397h270z" />
    <glyph glyph-name="Idieresis" unicode="&#xcf;" horiz-adv-x="590" 
d="M182 1659q0 -54 -39.5 -93.5t-93.5 -39.5q-55 0 -95 39.5t-40 93.5q0 52 40 92.5t95 40.5q54 0 93.5 -40t39.5 -93zM676 1659q0 -51 -39 -92t-94 -41q-53 0 -93 38.5t-40 94.5q0 54 39.5 93.5t93.5 39.5t93.5 -41t39.5 -92zM430 1397v-1397h-270v1397h270z" />
    <glyph glyph-name="Eth" unicode="&#xd0;" horiz-adv-x="1583" 
d="M741 1397q218 0 388 -89.5t263 -249.5t93 -362q0 -205 -95.5 -364t-270 -245.5t-396.5 -86.5h-569v610h-154v178h154v609h587zM786 788v-178h-362v-399h285q227 0 362 134.5t135 354.5q0 225 -136.5 355.5t-367.5 130.5h-278v-398h362z" />
    <glyph glyph-name="Ntilde" unicode="&#xd1;" horiz-adv-x="1638" 
d="M692 1782q42 0 89 -17.5t92.5 -38t85.5 -38t67 -17.5q31 0 52.5 27.5t27.5 81.5h129q-6 -130 -68 -206.5t-159 -76.5q-55 0 -101 15.5t-112 50.5q-29 13 -49 22t-34.5 14t-25.5 7t-22 2q-36 0 -54 -27.5t-26 -83.5h-127q6 134 71 209.5t164 75.5zM391 1397l830 -975v975
h264v-1397h-232l-835 991v-991h-264v1397h237z" />
    <glyph glyph-name="Ograve" unicode="&#xd2;" horiz-adv-x="1739" 
d="M844 1837l190 -344h-151l-377 344h338zM870 1415q217 0 390.5 -89.5t276.5 -258t103 -369.5q0 -196 -100.5 -363.5t-276 -260t-395.5 -92.5q-217 0 -394.5 94t-276.5 258.5t-99 363.5q0 192 99 361t273 262.5t400 93.5zM377 698q0 -139 63 -250t175.5 -172t254.5 -61
q215 0 353.5 135t138.5 348q0 139 -62.5 250.5t-176 172.5t-255.5 61t-255.5 -61.5t-174.5 -172t-61 -250.5z" />
    <glyph glyph-name="Oacute" unicode="&#xd3;" horiz-adv-x="1739" 
d="M1206 1837l-377 -344h-151l190 344h338zM870 1415q217 0 390.5 -89.5t276.5 -258t103 -369.5q0 -196 -100.5 -363.5t-276 -260t-395.5 -92.5q-217 0 -394.5 94t-276.5 258.5t-99 363.5q0 192 99 361t273 262.5t400 93.5zM377 698q0 -139 63 -250t175.5 -172t254.5 -61
q215 0 353.5 135t138.5 348q0 139 -62.5 250.5t-176 172.5t-255.5 61t-255.5 -61.5t-174.5 -172t-61 -250.5z" />
    <glyph glyph-name="Ocircumflex" unicode="&#xd4;" horiz-adv-x="1739" 
d="M1042 1827l218 -334h-156l-225 203l-224 -203h-151l211 334h327zM870 1415q217 0 390.5 -89.5t276.5 -258t103 -369.5q0 -196 -100.5 -363.5t-276 -260t-395.5 -92.5q-217 0 -394.5 94t-276.5 258.5t-99 363.5q0 192 99 361t273 262.5t400 93.5zM377 698q0 -139 63 -250
t175.5 -172t254.5 -61q215 0 353.5 135t138.5 348q0 139 -62.5 250.5t-176 172.5t-255.5 61t-255.5 -61.5t-174.5 -172t-61 -250.5z" />
    <glyph glyph-name="Otilde" unicode="&#xd5;" horiz-adv-x="1739" 
d="M721 1782q41 0 88.5 -17.5t93 -38t85.5 -38t67 -17.5q66 0 80 109h129q-6 -128 -67.5 -205.5t-160.5 -77.5q-50 0 -92.5 13t-120.5 53q-29 13 -49 22t-34 14t-25 7t-23 2q-35 0 -53.5 -27.5t-26.5 -83.5h-127q6 130 69.5 207.5t166.5 77.5zM870 1415q217 0 390.5 -89.5
t276.5 -258t103 -369.5q0 -196 -100.5 -363.5t-276 -260t-395.5 -92.5q-217 0 -394.5 94t-276.5 258.5t-99 363.5q0 192 99 361t273 262.5t400 93.5zM377 698q0 -139 63 -250t175.5 -172t254.5 -61q215 0 353.5 135t138.5 348q0 139 -62.5 250.5t-176 172.5t-255.5 61
t-255.5 -61.5t-174.5 -172t-61 -250.5z" />
    <glyph glyph-name="Odieresis" unicode="&#xd6;" horiz-adv-x="1739" 
d="M762 1659q0 -51 -39 -92t-94 -41t-95 39.5t-40 93.5q0 52 40 92.5t95 40.5q54 0 93.5 -40t39.5 -93zM1255 1659q0 -54 -39.5 -93.5t-93.5 -39.5q-55 0 -94 39.5t-39 93.5q0 51 39 92t94 41q52 0 92.5 -40t40.5 -93zM870 1415q217 0 390.5 -89.5t276.5 -258t103 -369.5
q0 -196 -100.5 -363.5t-276 -260t-395.5 -92.5q-217 0 -394.5 94t-276.5 258.5t-99 363.5q0 192 99 361t273 262.5t400 93.5zM377 698q0 -139 63 -250t175.5 -172t254.5 -61q215 0 353.5 135t138.5 348q0 139 -62.5 250.5t-176 172.5t-255.5 61t-255.5 -61.5t-174.5 -172
t-61 -250.5z" />
    <glyph glyph-name="multiply" unicode="&#xd7;" horiz-adv-x="1196" 
d="M598 879l307 309l156 -156l-307 -309l307 -307l-156 -156l-307 307l-309 -307l-156 156l309 307l-309 309l156 156z" />
    <glyph glyph-name="Oslash" unicode="&#xd8;" horiz-adv-x="1739" 
d="M1538 1427l113 -122l-170 -158q78 -96 118.5 -211.5t40.5 -237.5q0 -194 -100 -362.5t-275.5 -261t-396.5 -92.5q-286 0 -489 153l-227 -209l-109 127l215 197q-78 97 -119 212.5t-41 235.5q0 197 101.5 365.5t276.5 260t394 91.5q284 0 490 -151zM377 698
q0 -153 74 -270l720 664q-126 90 -303 90q-140 0 -253 -61.5t-175.5 -172.5t-62.5 -250zM565 307q129 -92 305 -92q140 0 254 62t176 172t62 249q0 156 -76 273z" />
    <glyph glyph-name="Ugrave" unicode="&#xd9;" horiz-adv-x="1563" 
d="M733 1837l191 -344h-152l-377 344h338zM414 1397v-813q0 -125 37.5 -199t122.5 -122t198 -48q124 0 210.5 45.5t126.5 124t40 217.5v795h270v-830q0 -282 -169 -433.5t-478 -151.5q-194 0 -336.5 69t-217.5 199.5t-75 306.5v840h271z" />
    <glyph glyph-name="Uacute" unicode="&#xda;" horiz-adv-x="1563" 
d="M1153 1837l-377 -344h-151l190 344h338zM414 1397v-813q0 -125 37.5 -199t122.5 -122t198 -48q124 0 210.5 45.5t126.5 124t40 217.5v795h270v-830q0 -282 -169 -433.5t-478 -151.5q-194 0 -336.5 69t-217.5 199.5t-75 306.5v840h271z" />
    <glyph glyph-name="Ucircumflex" unicode="&#xdb;" horiz-adv-x="1563" 
d="M954 1827l217 -334h-155l-225 203l-224 -203h-151l211 334h327zM414 1397v-813q0 -125 37.5 -199t122.5 -122t198 -48q124 0 210.5 45.5t126.5 124t40 217.5v795h270v-830q0 -282 -169 -433.5t-478 -151.5q-194 0 -336.5 69t-217.5 199.5t-75 306.5v840h271z" />
    <glyph glyph-name="Udieresis" unicode="&#xdc;" horiz-adv-x="1563" 
d="M674 1659q0 -51 -39 -92t-94 -41t-95 39.5t-40 93.5q0 52 40 92.5t95 40.5q54 0 93.5 -40t39.5 -93zM1167 1659q0 -54 -39.5 -93.5t-93.5 -39.5q-55 0 -94 39.5t-39 93.5q0 51 39 92t94 41q52 0 92.5 -40t40.5 -93zM414 1397v-813q0 -125 37.5 -199t122.5 -122t198 -48
q124 0 210.5 45.5t126.5 124t40 217.5v795h270v-830q0 -282 -169 -433.5t-478 -151.5q-194 0 -336.5 69t-217.5 199.5t-75 306.5v840h271z" />
    <glyph glyph-name="Yacute" unicode="&#xdd;" horiz-adv-x="1346" 
d="M1061 1837l-377 -344h-152l191 344h338zM336 1397l338 -467l342 467h321l-528 -705v-692h-270v694l-531 703h328z" />
    <glyph glyph-name="Thorn" unicode="&#xde;" horiz-adv-x="1196" 
d="M424 1397v-293h272q193 0 316 -113t123 -293q0 -184 -125 -294.5t-326 -110.5h-260v-293h-270v1397h270zM627 504q108 0 168.5 49.5t60.5 146.5q0 193 -248 193h-184v-389h203z" />
    <glyph glyph-name="germandbls" unicode="&#xdf;" horiz-adv-x="1130" 
d="M549 1415q202 0 322 -94.5t120 -251.5q0 -95 -50 -172t-140 -113v-8q121 -34 184.5 -131t63.5 -239q0 -187 -108 -305.5t-286 -118.5q-58 0 -137 18v182q39 -16 76 -16q96 0 150.5 72t54.5 190q0 131 -62 200.5t-184 69.5h-21v156h13q96 0 146 51t50 148
q0 89 -50.5 145.5t-131.5 56.5q-98 0 -144 -64t-46 -177v-1014h-246v1020q0 185 114.5 290t311.5 105z" />
    <glyph glyph-name="agrave" unicode="&#xe0;" horiz-adv-x="989" 
d="M459 952q180 0 275 -76.5t95 -213.5v-457q0 -53 43 -53q18 0 50.5 15.5t54.5 35.5v-142q-129 -79 -236 -79q-66 0 -101.5 22t-49.5 78q-141 -100 -283 -100q-101 0 -173.5 68t-72.5 163q0 121 72 191t252 122l199 58v43q0 137 -166 137q-85 0 -169 -39t-153 -115v221
q153 121 363 121zM309 250q0 -51 32.5 -82t80.5 -31q81 0 162 74v246q-103 -35 -161.5 -66t-86 -63t-27.5 -78zM459 1364l145 -299h-133l-291 299h279z" />
    <glyph glyph-name="aacute" unicode="&#xe1;" horiz-adv-x="989" 
d="M459 952q180 0 275 -76.5t95 -213.5v-457q0 -53 43 -53q18 0 50.5 15.5t54.5 35.5v-142q-129 -79 -236 -79q-66 0 -101.5 22t-49.5 78q-141 -100 -283 -100q-101 0 -173.5 68t-72.5 163q0 121 72 191t252 122l199 58v43q0 137 -166 137q-85 0 -169 -39t-153 -115v221
q153 121 363 121zM309 250q0 -51 32.5 -82t80.5 -31q81 0 162 74v246q-103 -35 -161.5 -66t-86 -63t-27.5 -78zM756 1364l-289 -299h-133l145 299h277z" />
    <glyph glyph-name="acircumflex" unicode="&#xe2;" horiz-adv-x="989" 
d="M459 952q180 0 275 -76.5t95 -213.5v-457q0 -53 43 -53q18 0 50.5 15.5t54.5 35.5v-142q-129 -79 -236 -79q-66 0 -101.5 22t-49.5 78q-141 -100 -283 -100q-101 0 -173.5 68t-72.5 163q0 121 72 191t252 122l199 58v43q0 137 -166 137q-85 0 -169 -39t-153 -115v221
q153 121 363 121zM309 250q0 -51 32.5 -82t80.5 -31q81 0 162 74v246q-103 -35 -161.5 -66t-86 -63t-27.5 -78zM576 1374l196 -336h-149l-168 179l-168 -179h-147l194 336h242z" />
    <glyph glyph-name="atilde" unicode="&#xe3;" horiz-adv-x="989" 
d="M459 952q180 0 275 -76.5t95 -213.5v-457q0 -53 43 -53q18 0 50.5 15.5t54.5 35.5v-142q-129 -79 -236 -79q-66 0 -101.5 22t-49.5 78q-141 -100 -283 -100q-101 0 -173.5 68t-72.5 163q0 121 72 191t252 122l199 58v43q0 137 -166 137q-85 0 -169 -39t-153 -115v221
q153 121 363 121zM309 250q0 -51 32.5 -82t80.5 -31q81 0 162 74v246q-103 -35 -161.5 -66t-86 -63t-27.5 -78zM811 1348q-4 -131 -59 -205t-146 -74q-43 0 -85 15.5t-82 33.5q-39 17 -74.5 31t-67.5 14q-34 0 -55 -24.5t-27 -67.5h-110q9 131 62 203t143 72q59 0 159 -43
q41 -17 80 -33.5t68 -16.5q69 0 84 95h110z" />
    <glyph glyph-name="adieresis" unicode="&#xe4;" horiz-adv-x="989" 
d="M459 952q180 0 275 -76.5t95 -213.5v-457q0 -53 43 -53q18 0 50.5 15.5t54.5 35.5v-142q-129 -79 -236 -79q-66 0 -101.5 22t-49.5 78q-141 -100 -283 -100q-101 0 -173.5 68t-72.5 163q0 121 72 191t252 122l199 58v43q0 137 -166 137q-85 0 -169 -39t-153 -115v221
q153 121 363 121zM309 250q0 -51 32.5 -82t80.5 -31q81 0 162 74v246q-103 -35 -161.5 -66t-86 -63t-27.5 -78zM256 1321q48 0 81.5 -33.5t33.5 -81.5q0 -47 -33.5 -81.5t-81.5 -34.5q-47 0 -81.5 34.5t-34.5 81.5q0 48 34 81.5t82 33.5zM656 1321q48 0 82 -34t34 -81
q0 -48 -34.5 -82t-81.5 -34q-46 0 -80.5 33t-34.5 83q0 48 33.5 81.5t81.5 33.5z" />
    <glyph glyph-name="aring" unicode="&#xe5;" horiz-adv-x="989" 
d="M459 952q180 0 275 -76.5t95 -213.5v-457q0 -53 43 -53q18 0 50.5 15.5t54.5 35.5v-142q-129 -79 -236 -79q-66 0 -101.5 22t-49.5 78q-141 -100 -283 -100q-101 0 -173.5 68t-72.5 163q0 121 72 191t252 122l199 58v43q0 137 -166 137q-85 0 -169 -39t-153 -115v221
q153 121 363 121zM309 250q0 -51 32.5 -82t80.5 -31q81 0 162 74v246q-103 -35 -161.5 -66t-86 -63t-27.5 -78zM459 1438q84 0 141.5 -58.5t57.5 -140.5q0 -83 -58 -142t-141 -59q-84 0 -142.5 59t-58.5 142q0 82 58.5 140.5t142.5 58.5zM348 1239q0 -46 33 -79.5t78 -33.5
t79 33.5t34 79.5q0 47 -34 79t-79 32t-78 -32t-33 -79z" />
    <glyph glyph-name="ae" unicode="&#xe6;" horiz-adv-x="1516" 
d="M459 952q105 0 180 -31.5t113 -91.5q52 56 126.5 89.5t149.5 33.5q196 0 307 -134t111 -365v-35h-621q8 -119 86.5 -189.5t202.5 -70.5q138 0 318 123v-183q-162 -116 -377 -116q-107 0 -205 42.5t-166 122.5l-88 -61q-139 -104 -289 -104q-103 0 -174.5 68t-71.5 163
q0 119 73 190.5t251 122.5l135 39l64 19v45q0 135 -166 135q-87 0 -172 -41.5t-150 -112.5v221q153 121 363 121zM1214 567q-11 109 -58 163t-126 54q-80 0 -132.5 -54t-68.5 -163h385zM309 250q0 -51 32.5 -82t82.5 -31q73 0 160 72v248q-147 -47 -211 -98t-64 -109z" />
    <glyph glyph-name="ccedilla" unicode="&#xe7;" horiz-adv-x="944" 
d="M571 952q163 0 295 -63v-209q-131 76 -248 76q-126 0 -206 -78.5t-80 -212.5q0 -132 79.5 -211.5t215.5 -79.5q100 0 256 66v-199q-145 -59 -320 -59l-12 -29q121 -38 121 -139q0 -82 -58 -131.5t-178 -49.5q-47 0 -114 15v108l43 -4q120 0 120 62q0 23 -22 39t-70 16h-8
l61 127q-171 35 -271.5 159t-100.5 302q0 223 138.5 359t358.5 136z" />
    <glyph glyph-name="egrave" unicode="&#xe8;" horiz-adv-x="1057" 
d="M541 952q206 0 326 -132t120 -365v-37h-661q15 -125 93.5 -192.5t215.5 -67.5q88 0 169.5 30.5t168.5 92.5v-183q-164 -116 -398 -116q-221 0 -361 133t-140 354q0 213 129.5 348t337.5 135zM756 567q-10 102 -62 159.5t-143 57.5q-93 0 -149.5 -55t-71.5 -162h426z
M512 1364l145 -299h-133l-291 299h279z" />
    <glyph glyph-name="eacute" unicode="&#xe9;" horiz-adv-x="1057" 
d="M541 952q206 0 326 -132t120 -365v-37h-661q15 -125 93.5 -192.5t215.5 -67.5q88 0 169.5 30.5t168.5 92.5v-183q-164 -116 -398 -116q-221 0 -361 133t-140 354q0 213 129.5 348t337.5 135zM756 567q-10 102 -62 159.5t-143 57.5q-93 0 -149.5 -55t-71.5 -162h426z
M836 1364l-289 -299h-133l145 299h277z" />
    <glyph glyph-name="ecircumflex" unicode="&#xea;" horiz-adv-x="1057" 
d="M541 952q206 0 326 -132t120 -365v-37h-661q15 -125 93.5 -192.5t215.5 -67.5q88 0 169.5 30.5t168.5 92.5v-183q-164 -116 -398 -116q-221 0 -361 133t-140 354q0 213 129.5 348t337.5 135zM756 567q-10 102 -62 159.5t-143 57.5q-93 0 -149.5 -55t-71.5 -162h426z
M654 1374l196 -336h-149l-168 179l-168 -179h-147l194 336h242z" />
    <glyph glyph-name="edieresis" unicode="&#xeb;" horiz-adv-x="1057" 
d="M541 952q206 0 326 -132t120 -365v-37h-661q15 -125 93.5 -192.5t215.5 -67.5q88 0 169.5 30.5t168.5 92.5v-183q-164 -116 -398 -116q-221 0 -361 133t-140 354q0 213 129.5 348t337.5 135zM756 567q-10 102 -62 159.5t-143 57.5q-93 0 -149.5 -55t-71.5 -162h426z
M340 1321q48 0 81.5 -33.5t33.5 -81.5q0 -47 -33.5 -81.5t-81.5 -34.5q-47 0 -81.5 34.5t-34.5 81.5q0 48 34 81.5t82 33.5zM740 1321q48 0 82 -34t34 -81q0 -48 -34.5 -82t-81.5 -34q-46 0 -80.5 33t-34.5 83q0 48 33.5 81.5t81.5 33.5z" />
    <glyph glyph-name="igrave" unicode="&#xec;" horiz-adv-x="508" 
d="M377 934v-934h-246v934h246zM246 1364l145 -299h-133l-291 299h279z" />
    <glyph glyph-name="iacute" unicode="&#xed;" horiz-adv-x="508" 
d="M377 934v-934h-246v934h246zM539 1364l-289 -299h-133l145 299h277z" />
    <glyph glyph-name="icircumflex" unicode="&#xee;" horiz-adv-x="508" 
d="M377 934v-934h-246v934h246zM376 1374l196 -336h-149l-168 179l-168 -179h-147l194 336h242z" />
    <glyph glyph-name="idieresis" unicode="&#xef;" horiz-adv-x="508" 
d="M84 1321q48 0 82.5 -32t34.5 -83q0 -49 -35 -82.5t-82 -33.5q-48 0 -82.5 34t-34.5 82q0 46 34.5 80.5t82.5 34.5zM424 1321q49 0 82 -32.5t33 -82.5t-33.5 -83t-81.5 -33q-50 0 -83.5 34t-33.5 82q0 50 34 82.5t83 32.5zM377 934v-934h-246v934h246z" />
    <glyph glyph-name="eth" unicode="&#xf0;" horiz-adv-x="1174" 
d="M553 1415q99 -41 186 -110l267 110l51 -119l-209 -86q120 -124 186 -293.5t66 -355.5q0 -270 -136.5 -424.5t-375.5 -154.5q-149 0 -266.5 60.5t-182.5 172.5t-65 256q0 135 62 245.5t172.5 173t246.5 62.5q71 0 121 -15.5t121 -64.5l4 2q-40 112 -176 246l-287 -114
l-51 116l229 92q-73 54 -121 74zM332 471q0 -153 67.5 -230t186.5 -77q116 0 186 83t70 226q0 138 -68 217.5t-190 79.5q-116 0 -184 -80.5t-68 -218.5z" />
    <glyph glyph-name="ntilde" unicode="&#xf1;" horiz-adv-x="1108" 
d="M664 952q150 0 239.5 -98.5t89.5 -259.5v-594h-245v569q0 91 -43.5 144t-118.5 53q-57 0 -107 -33.5t-110 -111.5v-621h-246v934h246v-131q68 80 139.5 114.5t155.5 34.5zM913 1348q-4 -131 -59 -205t-146 -74q-43 0 -85 15.5t-82 33.5q-39 17 -74.5 31t-67.5 14
q-34 0 -55 -24.5t-27 -67.5h-110q9 131 62 203t143 72q59 0 159 -43q41 -17 80 -33.5t68 -16.5q69 0 84 95h110z" />
    <glyph glyph-name="ograve" unicode="&#xf2;" horiz-adv-x="1174" 
d="M586 952q146 0 265 -61t184 -171t65 -249q0 -145 -62.5 -254t-184 -172t-267.5 -63q-147 0 -267 63t-182.5 172t-62.5 254q0 141 66 250.5t184 170t262 60.5zM332 471q0 -140 68.5 -223.5t183.5 -83.5q120 0 189 80t69 229q0 142 -69.5 219.5t-188.5 77.5
q-112 0 -182 -82t-70 -217zM576 1364l145 -299h-133l-291 299h279z" />
    <glyph glyph-name="oacute" unicode="&#xf3;" horiz-adv-x="1174" 
d="M586 952q146 0 265 -61t184 -171t65 -249q0 -145 -62.5 -254t-184 -172t-267.5 -63q-147 0 -267 63t-182.5 172t-62.5 254q0 141 66 250.5t184 170t262 60.5zM332 471q0 -140 68.5 -223.5t183.5 -83.5q120 0 189 80t69 229q0 142 -69.5 219.5t-188.5 77.5
q-112 0 -182 -82t-70 -217zM871 1364l-289 -299h-133l145 299h277z" />
    <glyph glyph-name="ocircumflex" unicode="&#xf4;" horiz-adv-x="1174" 
d="M586 952q146 0 265 -61t184 -171t65 -249q0 -145 -62.5 -254t-184 -172t-267.5 -63q-147 0 -267 63t-182.5 172t-62.5 254q0 141 66 250.5t184 170t262 60.5zM332 471q0 -140 68.5 -223.5t183.5 -83.5q120 0 189 80t69 229q0 142 -69.5 219.5t-188.5 77.5
q-112 0 -182 -82t-70 -217zM709 1374l196 -336h-149l-168 179l-168 -179h-147l194 336h242z" />
    <glyph glyph-name="otilde" unicode="&#xf5;" horiz-adv-x="1174" 
d="M586 952q146 0 265 -61t184 -171t65 -249q0 -145 -62.5 -254t-184 -172t-267.5 -63q-147 0 -267 63t-182.5 172t-62.5 254q0 141 66 250.5t184 170t262 60.5zM332 471q0 -140 68.5 -223.5t183.5 -83.5q120 0 189 80t69 229q0 142 -69.5 219.5t-188.5 77.5
q-112 0 -182 -82t-70 -217zM944 1348q-4 -131 -59 -205t-146 -74q-43 0 -85 15.5t-82 33.5q-39 17 -74.5 31t-67.5 14q-34 0 -55 -24.5t-27 -67.5h-110q9 131 62 203t143 72q59 0 159 -43q41 -17 80 -33.5t68 -16.5q69 0 84 95h110z" />
    <glyph glyph-name="odieresis" unicode="&#xf6;" horiz-adv-x="1174" 
d="M586 952q146 0 265 -61t184 -171t65 -249q0 -145 -62.5 -254t-184 -172t-267.5 -63q-147 0 -267 63t-182.5 172t-62.5 254q0 141 66 250.5t184 170t262 60.5zM332 471q0 -140 68.5 -223.5t183.5 -83.5q120 0 189 80t69 229q0 142 -69.5 219.5t-188.5 77.5
q-112 0 -182 -82t-70 -217zM387 1321q48 0 81.5 -33.5t33.5 -81.5q0 -47 -33.5 -81.5t-81.5 -34.5q-47 0 -81.5 34.5t-34.5 81.5q0 48 34 81.5t82 33.5zM787 1321q48 0 82 -34t34 -81q0 -48 -34.5 -82t-81.5 -34q-46 0 -80.5 33t-34.5 83q0 48 33.5 81.5t81.5 33.5z" />
    <glyph glyph-name="divide" unicode="&#xf7;" horiz-adv-x="1196" 
d="M598 1210q55 0 93 -38.5t38 -92.5q0 -51 -38 -91t-93 -40q-53 0 -92 39.5t-39 91.5q0 54 39 92.5t92 38.5zM1098 834v-222h-1000v222h1000zM598 498q56 0 93.5 -39t37.5 -92q0 -54 -37.5 -92.5t-93.5 -38.5q-55 0 -93 40t-38 91q0 52 37.5 91.5t93.5 39.5z" />
    <glyph glyph-name="oslash" unicode="&#xf8;" horiz-adv-x="1174" 
d="M1110 965l-139 -162q129 -129 129 -332q0 -148 -67 -259t-185 -170.5t-262 -59.5q-149 0 -271 63l-139 -162l-98 88l131 152q-135 135 -135 348q0 141 66 250.5t184 170t262 60.5q154 0 278 -69l148 170zM332 471q0 -98 33 -168l366 426q-56 41 -147 41q-112 0 -182 -82
t-70 -217zM451 201q50 -37 133 -37q121 0 189.5 79.5t68.5 229.5q0 88 -27 150z" />
    <glyph glyph-name="ugrave" unicode="&#xf9;" horiz-adv-x="1106" 
d="M360 934v-578q0 -91 45.5 -138.5t120.5 -47.5q62 0 119 38t92 107v619h246v-934h-246v127q-133 -145 -288 -145q-150 0 -242 98t-92 256v598h245zM543 1364l145 -299h-133l-291 299h279z" />
    <glyph glyph-name="uacute" unicode="&#xfa;" horiz-adv-x="1106" 
d="M360 934v-578q0 -91 45.5 -138.5t120.5 -47.5q62 0 119 38t92 107v619h246v-934h-246v127q-133 -145 -288 -145q-150 0 -242 98t-92 256v598h245zM840 1364l-289 -299h-133l145 299h277z" />
    <glyph glyph-name="ucircumflex" unicode="&#xfb;" horiz-adv-x="1106" 
d="M360 934v-578q0 -91 45.5 -138.5t120.5 -47.5q62 0 119 38t92 107v619h246v-934h-246v127q-133 -145 -288 -145q-150 0 -242 98t-92 256v598h245zM672 1374l196 -336h-149l-168 179l-168 -179h-147l194 336h242z" />
    <glyph glyph-name="udieresis" unicode="&#xfc;" horiz-adv-x="1106" 
d="M360 934v-578q0 -91 45.5 -138.5t120.5 -47.5q62 0 119 38t92 107v619h246v-934h-246v127q-133 -145 -288 -145q-150 0 -242 98t-92 256v598h245zM356 1321q48 0 81.5 -33.5t33.5 -81.5q0 -47 -33.5 -81.5t-81.5 -34.5q-47 0 -81.5 34.5t-34.5 81.5q0 48 34 81.5t82 33.5
zM756 1321q48 0 82 -34t34 -81q0 -48 -34.5 -82t-81.5 -34q-46 0 -80.5 33t-34.5 83q0 48 33.5 81.5t81.5 33.5z" />
    <glyph glyph-name="yacute" unicode="&#xfd;" horiz-adv-x="979" 
d="M268 934l221 -502l224 502h264l-645 -1405h-264l297 643l-363 762h266zM793 1364l-289 -299h-133l145 299h277z" />
    <glyph glyph-name="thorn" unicode="&#xfe;" horiz-adv-x="1122" 
d="M369 1397v-523q111 78 235 78q200 0 322.5 -134t122.5 -349q0 -141 -57.5 -252t-163.5 -173t-240 -62q-109 0 -219 55v-508h-246v1868h246zM369 217q92 -53 172 -53q117 0 186.5 82.5t69.5 214.5q0 143 -62.5 224t-177.5 81q-43 0 -83 -14.5t-105 -61.5v-473z" />
    <glyph glyph-name="ydieresis" unicode="&#xff;" horiz-adv-x="979" 
d="M268 934l221 -502l224 502h264l-645 -1405h-264l297 643l-363 762h266zM291 1321q48 0 81.5 -33.5t33.5 -81.5q0 -47 -33.5 -81.5t-81.5 -34.5q-47 0 -81.5 34.5t-34.5 81.5q0 48 34 81.5t82 33.5zM691 1321q48 0 82 -34t34 -81q0 -48 -34.5 -82t-81.5 -34
q-46 0 -80.5 33t-34.5 83q0 48 33.5 81.5t81.5 33.5z" />
    <glyph glyph-name="Aogonek" unicode="&#x104;" horiz-adv-x="1470" 
d="M846 1401l622 -1401h-114q-47 -81 -47 -123q0 -46 35 -78t81 -32q29 0 99 18v-164q-76 -35 -162 -35q-106 0 -172 63.5t-66 168.5q0 98 66 182l-156 350h-606l-145 -350h-279l584 1401h260zM510 559h432l-225 522z" />
    <glyph glyph-name="aogonek" unicode="&#x105;" horiz-adv-x="971" 
d="M449 948q170 0 266 -78.5t96 -220.5v-448q0 -29 9.5 -41.5t31.5 -12.5q19 0 43 12.5t61 35.5v-136q-80 -51 -149 -67q-37 -58 -37 -103q0 -43 30.5 -70.5t73.5 -27.5q47 0 91 16v-149q-80 -31 -148 -31q-99 0 -157 56t-58 149q0 85 53 164q-58 15 -73 84
q-129 -98 -275 -98q-104 0 -174 67.5t-70 165.5q0 95 61 162.5t191 111.5l263 89q0 104 -38 146t-126 42q-89 0 -173 -42.5t-145 -113.5v217q141 121 353 121zM301 248q0 -48 32.5 -82.5t80.5 -34.5q86 0 164 74v250q-143 -54 -187 -79.5t-67 -56t-23 -71.5z" />
    <glyph glyph-name="Cacute" unicode="&#x106;" horiz-adv-x="1485" 
d="M1167 1837l-376 -344h-152l190 344h338zM887 1415q119 0 233 -27t246 -92v-254q-129 74 -238.5 107t-228.5 33q-149 0 -269 -61.5t-186.5 -173.5t-66.5 -249q0 -140 66 -251t186 -171.5t270 -60.5q115 0 219.5 33t263.5 119v-254q-136 -71 -250 -101t-266 -30
q-221 0 -395 88t-273.5 253.5t-99.5 362.5q0 211 102.5 379t282 259t404.5 91z" />
    <glyph glyph-name="cacute" unicode="&#x107;" horiz-adv-x="944" 
d="M571 952q163 0 295 -63v-209q-131 76 -248 76q-126 0 -206 -78.5t-80 -212.5q0 -131 80.5 -211t214.5 -80q100 0 256 66v-199q-145 -59 -299 -59q-227 0 -368.5 130t-141.5 345q0 223 138.5 359t358.5 136zM818 1364l-289 -299h-133l145 299h277z" />
    <glyph glyph-name="Eogonek" unicode="&#x118;" horiz-adv-x="1171" 
d="M1049 1397v-215h-623v-363h598v-215h-598v-389h639v-215h-166q-49 -76 -49 -121q0 -48 34.5 -80t86.5 -32q42 0 94 18v-164q-82 -35 -162 -35q-107 0 -173 62t-66 166q0 98 67 186h-575v1397h893z" />
    <glyph glyph-name="eogonek" unicode="&#x119;" horiz-adv-x="1059" 
d="M762 565q-8 99 -63.5 157t-151.5 58q-88 0 -151.5 -60t-71.5 -155h438zM571 -18q-156 0 -263.5 63.5t-167.5 175t-60 246.5q0 138 58.5 248t165 171.5t235.5 61.5q198 0 319 -133t121 -360v-21h-660q8 -126 87.5 -200t216.5 -74q91 0 172.5 28t167.5 93v-183
q-74 -50 -148 -78q-53 -78 -53 -135q0 -40 32.5 -68t77.5 -28q26 0 82 16v-149q-69 -31 -145 -31q-96 0 -155.5 57.5t-59.5 149.5q0 81 47 152z" />
    <glyph glyph-name="dotlessi" unicode="&#x131;" horiz-adv-x="508" 
d="M377 934v-934h-246v934h246z" />
    <glyph glyph-name="Lslash" unicode="&#x141;" horiz-adv-x="1133" 
d="M424 1397v-467l297 233v-229l-297 -234v-489h678v-211h-948v487l-168 -131v230l168 131v680h270z" />
    <glyph glyph-name="lslash" unicode="&#x142;" horiz-adv-x="508" 
d="M377 1397v-488l160 123v-203l-160 -122v-707h-246v514l-160 -123v203l160 123v680h246z" />
    <glyph glyph-name="Nacute" unicode="&#x143;" horiz-adv-x="1638" 
d="M1231 1837l-377 -344h-152l191 344h338zM391 1397l830 -975v975h264v-1397h-232l-835 991v-991h-264v1397h237z" />
    <glyph glyph-name="nacute" unicode="&#x144;" horiz-adv-x="1108" 
d="M664 952q150 0 239.5 -98.5t89.5 -259.5v-594h-245v569q0 91 -43.5 144t-118.5 53q-57 0 -107 -33.5t-110 -111.5v-621h-246v934h246v-131q68 80 139.5 114.5t155.5 34.5zM848 1364l-289 -299h-133l145 299h277z" />
    <glyph glyph-name="OE" unicode="&#x152;" horiz-adv-x="2091" 
d="M1978 1397v-211h-632v-367h606v-211h-606v-397h647v-211h-1112q-232 0 -410.5 85t-275.5 243.5t-97 371.5q0 210 97 368.5t273.5 243.5t403.5 85h1106zM377 698q0 -141 69.5 -252.5t193 -173t271.5 -61.5h164v975h-155q-155 0 -279.5 -62t-194 -174.5t-69.5 -251.5z" />
    <glyph glyph-name="oe" unicode="&#x153;" horiz-adv-x="1733" 
d="M555 952q103 0 192 -37.5t171 -121.5q57 75 142 117t185 42q191 0 304.5 -132.5t113.5 -362.5v-39h-621q8 -119 86.5 -189.5t202.5 -70.5q134 0 318 123v-183q-165 -116 -377 -116q-101 0 -194 42.5t-154 118.5q-87 -87 -175.5 -124t-193.5 -37q-135 0 -246.5 62.5
t-173 174t-61.5 252.5q0 139 64.5 249.5t176.5 171t240 60.5zM1432 567q-21 217 -185 217q-81 0 -133 -54t-67 -163h385zM332 471q0 -131 65 -219t166 -88q107 0 172.5 85.5t65.5 223.5q0 133 -67 215t-173 82q-98 0 -163.5 -84.5t-65.5 -214.5z" />
    <glyph glyph-name="Sacute" unicode="&#x15a;" horiz-adv-x="1094" 
d="M911 1837l-376 -344h-152l190 344h338zM559 1415q204 0 393 -102v-240q-217 131 -385 131q-102 0 -159.5 -39.5t-57.5 -105.5q0 -79 107 -146q30 -20 231 -112q172 -81 248 -180t76 -238q0 -180 -129.5 -290.5t-335.5 -110.5q-134 0 -230.5 29.5t-216.5 101.5v266
q224 -186 422 -186q99 0 160 43t61 114q0 97 -106 158q-88 48 -227 115q-165 75 -246.5 175t-81.5 232q0 176 131 280.5t346 104.5z" />
    <glyph glyph-name="sacute" unicode="&#x15b;" horiz-adv-x="827" 
d="M426 952q77 0 145 -17.5t144 -55.5v-197q-70 45 -150 72.5t-143 27.5q-53 0 -83 -20t-30 -57q0 -21 25 -42t137 -77q160 -81 224.5 -149.5t64.5 -164.5q0 -135 -94 -212.5t-254 -77.5q-100 0 -186.5 22t-143.5 53v205q180 -100 303 -100q63 0 102 22.5t39 59.5
q0 22 -14 40t-42 37t-175 91q-113 54 -167 117.5t-54 150.5q0 124 97 198t255 74zM725 1364l-289 -299h-133l145 299h277z" />
    <glyph glyph-name="Scaron" unicode="&#x160;" horiz-adv-x="1094" 
d="M178 1825h156q156 -139 223 -203l223 203h154l-213 -332h-328zM559 1415q204 0 393 -102v-240q-217 131 -385 131q-102 0 -159.5 -39.5t-57.5 -105.5q0 -79 107 -146q30 -20 231 -112q172 -81 248 -180t76 -238q0 -180 -129.5 -290.5t-335.5 -110.5q-134 0 -230.5 29.5
t-216.5 101.5v266q224 -186 422 -186q99 0 160 43t61 114q0 97 -106 158q-88 48 -227 115q-165 75 -246.5 175t-81.5 232q0 176 131 280.5t346 104.5z" />
    <glyph glyph-name="scaron" unicode="&#x161;" horiz-adv-x="827" 
d="M426 952q77 0 145 -17.5t144 -55.5v-197q-70 45 -150 72.5t-143 27.5q-53 0 -83 -20t-30 -57q0 -21 25 -42t137 -77q160 -81 224.5 -149.5t64.5 -164.5q0 -135 -94 -212.5t-254 -77.5q-100 0 -186.5 22t-143.5 53v205q180 -100 303 -100q63 0 102 22.5t39 59.5
q0 22 -14 40t-42 37t-175 91q-113 54 -167 117.5t-54 150.5q0 124 97 198t255 74zM252 1374l164 -178l170 178h149l-196 -336h-242l-194 336h149z" />
    <glyph glyph-name="Ydieresis" unicode="&#x178;" horiz-adv-x="1346" 
d="M569 1659q0 -54 -39.5 -93.5t-93.5 -39.5q-53 0 -94 39t-41 94q0 54 41 93.5t94 39.5q54 0 93.5 -40t39.5 -93zM1063 1659q0 -51 -39 -92t-94 -41q-53 0 -93 38.5t-40 94.5q0 54 39.5 93.5t93.5 39.5t93.5 -41t39.5 -92zM336 1397l338 -467l342 467h321l-528 -705v-692
h-270v694l-531 703h328z" />
    <glyph glyph-name="Zacute" unicode="&#x179;" horiz-adv-x="1358" 
d="M1032 1837l-377 -344h-151l190 344h338zM1303 1397l-814 -1186h818v-211h-1282l813 1186h-764v211h1229z" />
    <glyph glyph-name="zacute" unicode="&#x17a;" horiz-adv-x="971" 
d="M926 934l-486 -750h488v-184h-897l487 748h-450v186h858zM795 1364l-289 -299h-133l145 299h277z" />
    <glyph glyph-name="Zdotaccent" unicode="&#x17b;" horiz-adv-x="1358" 
d="M821 1659q0 -54 -39.5 -93.5t-93.5 -39.5q-53 0 -93 38.5t-40 94.5q0 53 39.5 93t93.5 40q52 0 92.5 -40t40.5 -93zM1303 1397l-814 -1186h818v-211h-1282l813 1186h-764v211h1229z" />
    <glyph glyph-name="zdotaccent" unicode="&#x17c;" horiz-adv-x="971" 
d="M926 934l-486 -750h488v-184h-897l487 748h-450v186h858zM522 1321q48 0 81.5 -33.5t33.5 -81.5q0 -49 -34.5 -82.5t-80.5 -33.5t-81.5 33.5t-35.5 82.5q0 47 34.5 81t82.5 34z" />
    <glyph glyph-name="Zcaron" unicode="&#x17d;" horiz-adv-x="1358" 
d="M287 1825h155l224 -203l223 203h153l-213 -332h-327zM1303 1397l-814 -1186h818v-211h-1282l813 1186h-764v211h1229z" />
    <glyph glyph-name="zcaron" unicode="&#x17e;" horiz-adv-x="971" 
d="M926 934l-486 -750h488v-184h-897l487 748h-450v186h858zM319 1374l164 -178l170 178h149l-196 -336h-242l-194 336h149z" />
    <glyph glyph-name="florin" unicode="&#x192;" horiz-adv-x="1087" 
d="M877 1450q112 0 239 -39l-45 -192q-119 26 -160 26q-42 0 -64.5 -15.5t-36 -48.5t-36.5 -161h205l-31 -178h-205l-186 -1061q-16 -93 -54 -147.5t-91 -79.5t-150 -25q-66 0 -142 11.5t-110 21.5l47 190q95 -20 160 -20q54 0 80 28t41 109l168 973h-201l29 178h203l28 174
q24 138 98 197t214 59z" />
    <glyph glyph-name="circumflex" unicode="&#x2c6;" horiz-adv-x="682" 
d="M461 1374l196 -336h-149l-168 179l-168 -179h-147l194 336h242z" />
    <glyph glyph-name="caron" unicode="&#x2c7;" horiz-adv-x="682" 
d="M174 1374l164 -178l170 178h149l-196 -336h-242l-194 336h149z" />
    <glyph glyph-name="firsttonechinese" unicode="&#x2c9;" horiz-adv-x="682" 
d="M711 1290v-176h-740v176h740z" />
    <glyph glyph-name="breve" unicode="&#x2d8;" horiz-adv-x="682" 
d="M180 1364q34 -127 162 -127q125 0 160 127h176q-19 -134 -111.5 -222.5t-220.5 -88.5q-133 0 -224 82t-118 229h176z" />
    <glyph glyph-name="dotaccent" unicode="&#x2d9;" horiz-adv-x="682" 
d="M342 1321q48 0 81.5 -33.5t33.5 -81.5q0 -49 -34.5 -82.5t-80.5 -33.5t-81.5 33.5t-35.5 82.5q0 47 34.5 81t82.5 34z" />
    <glyph glyph-name="ring" unicode="&#x2da;" horiz-adv-x="682" 
d="M342 1438q84 0 141.5 -58.5t57.5 -140.5q0 -83 -58 -142t-141 -59q-84 0 -142.5 59t-58.5 142q0 82 58.5 140.5t142.5 58.5zM231 1239q0 -46 33 -79.5t78 -33.5t79 33.5t34 79.5q0 47 -34 79t-79 32t-78 -32t-33 -79z" />
    <glyph glyph-name="ogonek" unicode="&#x2db;" horiz-adv-x="682" 
d="M389 18q-51 -82 -51 -127q0 -46 28.5 -75t77.5 -29q35 0 86 20v-151q-73 -31 -151 -31q-97 0 -153 59.5t-56 153.5q0 51 16 92.5t52 87.5h151z" />
    <glyph glyph-name="tilde" unicode="&#x2dc;" horiz-adv-x="682" 
d="M694 1348q-4 -131 -59 -205t-146 -74q-43 0 -85 15.5t-82 33.5q-39 17 -74.5 31t-67.5 14q-34 0 -55 -24.5t-27 -67.5h-110q9 131 62 203t143 72q59 0 159 -43q41 -17 80 -33.5t68 -16.5q69 0 84 95h110z" />
    <glyph glyph-name="hungarumlaut" unicode="&#x2dd;" horiz-adv-x="682" 
d="M385 1364l-252 -299h-131l121 299h262zM741 1364l-252 -299h-129l119 299h262z" />
    <glyph glyph-name="gravecmb" unicode="&#x300;" 
d="M-535 1364l145 -299h-133l-291 299h279z" />
    <glyph glyph-name="acutecmb" unicode="&#x301;" 
d="M-308 1417l-289 -299h-133l145 299h277z" />
    <glyph glyph-name="circumflexcmb" unicode="&#x302;" 
d="M-449 1454l196 -336h-149l-168 179l-168 -179h-147l194 336h242z" />
    <glyph glyph-name="tildecmb" unicode="&#x303;" 
d="M-204 1434q-4 -131 -59 -205t-146 -74q-43 0 -85 15.5t-82 33.5q-39 17 -74.5 31t-67.5 14q-34 0 -55 -24.5t-27 -67.5h-110q9 131 62 203t143 72q59 0 159 -43q41 -17 80 -33.5t68 -16.5q69 0 84 95h110z" />
    <glyph glyph-name="macroncmb" unicode="&#x304;" 
d="M-1162 1495v133h1200v-133h-1200z" />
    <glyph glyph-name="brevecmb" unicode="&#x306;" 
d="M-724 1444q34 -127 162 -127q125 0 160 127h176q-19 -134 -111.5 -222.5t-220.5 -88.5q-133 0 -224 82t-118 229h176z" />
    <glyph glyph-name="dotaccentcmb" unicode="&#x307;" 
d="M-562 1348q48 0 81.5 -33.5t33.5 -81.5q0 -49 -34.5 -82.5t-80.5 -33.5t-81.5 33.5t-35.5 82.5q0 47 34.5 81t82.5 34z" />
    <glyph glyph-name="dieresiscmb" unicode="&#x308;" 
d="M-765 1407q48 0 81.5 -33.5t33.5 -81.5q0 -47 -33.5 -81.5t-81.5 -34.5q-47 0 -81.5 34.5t-34.5 81.5q0 48 34 81.5t82 33.5zM-365 1407q48 0 82 -34t34 -81q0 -48 -34.5 -82t-81.5 -34q-46 0 -80.5 33t-34.5 83q0 48 33.5 81.5t81.5 33.5z" />
    <glyph glyph-name="ringcmb" unicode="&#x30a;" 
d="M-562 1516q84 0 141.5 -58.5t57.5 -140.5q0 -83 -58 -142t-141 -59q-84 0 -142.5 59t-58.5 142q0 82 58.5 140.5t142.5 58.5zM-673 1317q0 -46 33 -79.5t78 -33.5t79 33.5t34 79.5q0 47 -34 79t-79 32t-78 -32t-33 -79z" />
    <glyph glyph-name="hungarumlautcmb" unicode="&#x30b;" 
d="M-548 1421l-252 -299h-131l121 299h262zM-192 1421l-252 -299h-129l119 299h262z" />
    <glyph glyph-name="caroncmb" unicode="&#x30c;" 
d="M-730 1454l164 -178l170 178h149l-196 -336h-242l-194 336h149z" />
    <glyph glyph-name="cedillacmb" unicode="&#x327;" 
d="M-615 10h121l-23 -57q121 -40 121 -139q0 -85 -60.5 -133t-175.5 -48q-44 0 -114 15v108l53 -4q59 0 85 18t26 44q0 20 -19.5 37.5t-64.5 17.5h-17z" />
    <glyph glyph-name="ogonekcmb" unicode="&#x328;" 
d="M-523 18q-51 -82 -51 -127q0 -46 28.5 -75t77.5 -29q35 0 86 20v-151q-73 -31 -151 -31q-97 0 -153 59.5t-56 153.5q0 51 16 92.5t52 87.5h151z" />
    <glyph glyph-name="soliduslongoverlaycmb" unicode="&#x338;" 
d="M-836 -18l402 1433h143l-399 -1433h-146z" />
    <glyph glyph-name="afii10023" unicode="&#x401;" horiz-adv-x="1169" 
d="M481 1659q0 -54 -39.5 -93.5t-93.5 -39.5q-55 0 -95 39.5t-40 93.5q0 52 40 92.5t95 40.5q54 0 93.5 -40t39.5 -93zM975 1659q0 -51 -39 -92t-94 -41q-53 0 -93 38.5t-40 94.5q0 54 39.5 93.5t93.5 39.5t93.5 -41t39.5 -92zM1057 1397v-211h-633v-367h606v-211h-606v-397
h647v-211h-917v1397h903z" />
    <glyph glyph-name="afii10051" unicode="&#x402;" horiz-adv-x="1649" 
d="M1298 1397v-211h-493v-391q44 53 135.5 88t177.5 35q213 0 341 -120t128 -319q0 -223 -140.5 -355t-377.5 -132q-54 0 -94 8v182l92 -6q109 0 176.5 79t67.5 204q0 114 -68 180t-180 66q-76 0 -136 -34t-122 -122v-549h-270v1186h-492v211h1255z" />
    <glyph glyph-name="afii10052" unicode="&#x403;" horiz-adv-x="1059" 
d="M961 1837l-377 -344h-152l191 344h338zM1034 1397v-219h-610v-1178h-270v1397h880z" />
    <glyph glyph-name="afii10053" unicode="&#x404;" horiz-adv-x="1485" 
d="M883 1415q128 0 244 -27t237 -79v-265q-140 77 -252.5 107.5t-234.5 30.5q-184 0 -318.5 -103t-171.5 -272h715v-213h-715q35 -172 172 -275.5t336 -103.5q116 0 229.5 36.5t257.5 117.5v-256q-129 -70 -251.5 -100.5t-264.5 -30.5q-227 0 -402 90t-270.5 251.5
t-95.5 362.5q0 204 99 372t279 262.5t407 94.5z" />
    <glyph glyph-name="afii10054" unicode="&#x405;" horiz-adv-x="1094" 
d="M559 1415q204 0 393 -102v-240q-217 131 -385 131q-102 0 -159.5 -39.5t-57.5 -105.5q0 -79 107 -146q30 -20 231 -112q172 -81 248 -180t76 -238q0 -180 -129.5 -290.5t-335.5 -110.5q-134 0 -230.5 29.5t-216.5 101.5v266q224 -186 422 -186q99 0 160 43t61 114
q0 97 -106 158q-88 48 -227 115q-165 75 -246.5 175t-81.5 232q0 176 131 280.5t346 104.5z" />
    <glyph glyph-name="afii10055" unicode="&#x406;" horiz-adv-x="590" 
d="M430 1397v-1397h-270v1397h270z" />
    <glyph glyph-name="afii10056" unicode="&#x407;" horiz-adv-x="590" 
d="M119 1788q56 0 95.5 -37.5t39.5 -95.5q0 -55 -38.5 -95t-94.5 -40q-57 0 -96 39t-39 94t39.5 95t93.5 40zM469 1788q53 0 94 -38.5t41 -94.5q0 -55 -38.5 -95t-94.5 -40q-57 0 -96 39t-39 94t39.5 95t93.5 40zM430 1397v-1397h-270v1397h270z" />
    <glyph glyph-name="afii10057" unicode="&#x408;" horiz-adv-x="590" 
d="M430 1397v-1344q0 -224 -120 -358.5t-318 -134.5h-26.5t-26.5 2l-19 233q240 0 240 281v1321h270z" />
    <glyph glyph-name="afii10058" unicode="&#x409;" horiz-adv-x="1862" 
d="M797 1397l209 -545h276q154 0 273 -54t184 -152.5t65 -225.5q0 -120 -63.5 -216.5t-180 -150t-260.5 -53.5h-247l-385 1057l-381 -1057h-277l527 1397h260zM1079 643l168 -432h47q106 0 169 59.5t63 153.5q0 101 -70.5 160t-187.5 59h-189z" />
    <glyph glyph-name="afii10059" unicode="&#x40a;" horiz-adv-x="2187" 
d="M424 1397v-588h725v588h270v-588h199q234 0 373 -105t139 -288q0 -190 -139 -303t-371 -113h-471v590h-725v-590h-270v1397h270zM1419 600v-389h197q109 0 171 54t62 145q0 88 -65.5 139t-167.5 51h-197z" />
    <glyph glyph-name="afii10060" unicode="&#x40b;" horiz-adv-x="1690" 
d="M1307 1397v-211h-502v-312q56 25 141.5 39.5t183.5 14.5q254 0 366 -129t112 -422v-377h-269v365q0 131 -27 204.5t-86.5 105.5t-176.5 32q-128 0 -244 -43v-664h-270v1186h-492v211h1264z" />
    <glyph glyph-name="afii10061" unicode="&#x40c;" horiz-adv-x="1311" 
d="M1079 1837l-377 -344h-151l190 344h338zM420 1397v-559h14q90 2 137 28t88 83t82 153q57 129 106.5 186t118 83t173.5 26q39 0 67 -4v-215q-82 0 -120.5 -14.5t-67 -50.5t-70.5 -134q-79 -189 -207 -238q98 -41 177.5 -131t168.5 -258l189 -352h-299l-172 328
q-62 116 -116.5 181t-113 94.5t-155.5 29.5v-633h-266v1397h266z" />
    <glyph glyph-name="afii10062" unicode="&#x40e;" horiz-adv-x="1434" 
d="M530 1821q38 -138 195 -138q145 0 190 138h191q-25 -150 -131 -239t-252 -89t-256 96t-127 232h190zM293 1397l473 -1094l379 1094h276l-516 -1362q-73 -195 -174.5 -288t-253.5 -93q-124 0 -205 45v238q94 -64 193 -64q63 0 112 36t64 101l-629 1387h281z" />
    <glyph glyph-name="afii10145" unicode="&#x40f;" horiz-adv-x="1589" 
d="M424 1397v-1172h735v1172h273v-1397h-492v-256h-258v256h-528v1397h270z" />
    <glyph glyph-name="afii10017" unicode="&#x410;" horiz-adv-x="1489" 
d="M862 1397l617 -1397h-285l-145 340h-621l-135 -340h-283l576 1397h276zM510 545h451l-236 553z" />
    <glyph glyph-name="afii10018" unicode="&#x411;" horiz-adv-x="1309" 
d="M1124 1397v-211h-700v-334h291q152 0 269.5 -54t181 -150.5t63.5 -219.5q0 -196 -138 -312t-362 -116h-575v1397h970zM684 211q118 0 191 60t73 159t-72.5 156t-199.5 57h-252v-432h260z" />
    <glyph glyph-name="afii10019" unicode="&#x412;" horiz-adv-x="1286" 
d="M666 1397q192 0 313 -100t121 -250q0 -96 -50.5 -169t-146.5 -116v-12q146 -33 227.5 -130.5t81.5 -228.5q0 -116 -59.5 -207.5t-165 -137.5t-248.5 -46h-585v1397h512zM594 817q107 0 169 51t62 142q0 81 -57 128.5t-150 47.5h-194v-369h170zM657 211q137 0 207 51.5
t70 151.5q0 89 -69.5 140.5t-186.5 51.5h-254v-395h233z" />
    <glyph glyph-name="afii10020" unicode="&#x413;" horiz-adv-x="1059" 
d="M1034 1397v-219h-610v-1178h-270v1397h880z" />
    <glyph glyph-name="afii10021" unicode="&#x414;" horiz-adv-x="1565" 
d="M897 1397l477 -1172h160v-481h-266v256h-971v-256h-266v481h159l447 1172h260zM463 225h637l-332 860z" />
    <glyph glyph-name="afii10022" unicode="&#x415;" horiz-adv-x="1169" 
d="M1057 1397v-211h-633v-367h606v-211h-606v-397h647v-211h-917v1397h903z" />
    <glyph glyph-name="afii10024" unicode="&#x416;" horiz-adv-x="1968" 
d="M104 1393q31 4 78 4q146 0 228.5 -64t169.5 -246q59 -124 90 -169.5t62.5 -62.5t103.5 -17h14v559h266v-559h14q59 0 102 22.5t77.5 69.5t81.5 155q55 128 106.5 190.5t121 92t165.5 29.5q47 0 78 -4v-215q-91 0 -129 -19.5t-70.5 -65.5t-69.5 -137q-29 -74 -81.5 -136
t-108.5 -85q87 -29 156 -110.5t244 -394.5l128 -230h-301l-170 319q-102 188 -172 251t-172 63v-633h-266v633q-107 0 -192 -87t-210 -334l-112 -212h-303l108 191q166 301 250 405.5t174 138.5q-54 21 -105 79t-85 140q-36 90 -68.5 137t-71.5 67t-131 20v215z" />
    <glyph glyph-name="afii10025" unicode="&#x417;" horiz-adv-x="1165" 
d="M592 1415q218 0 340.5 -99t122.5 -274q0 -105 -62.5 -190t-171.5 -123q248 -98 248 -334q0 -190 -143 -301.5t-385 -111.5q-226 0 -420 77v256q181 -100 395 -100q129 0 204 47t75 146q0 190 -330 190h-162v215h193q133 0 212.5 56.5t79.5 142.5q0 170 -272 170
q-85 0 -190.5 -22.5t-192.5 -63.5v231q219 88 459 88z" />
    <glyph glyph-name="afii10026" unicode="&#x418;" horiz-adv-x="1581" 
d="M418 1397v-977l866 977h143v-1397h-266v942l-868 -952h-139v1407h264z" />
    <glyph glyph-name="afii10027" unicode="&#x419;" horiz-adv-x="1581" 
d="M598 1821q38 -138 195 -138q144 0 190 138h191q-24 -147 -129.5 -237.5t-253.5 -90.5q-147 0 -256.5 95.5t-126.5 232.5h190zM418 1397v-977l866 977h143v-1397h-266v942l-868 -952h-139v1407h264z" />
    <glyph glyph-name="afii10028" unicode="&#x41a;" horiz-adv-x="1311" 
d="M420 1397v-559h14q90 2 137 28t88 83t82 153q57 129 106.5 186t118 83t173.5 26q39 0 67 -4v-215q-82 0 -120.5 -14.5t-67 -50.5t-70.5 -134q-79 -189 -207 -238q98 -41 177.5 -131t168.5 -258l189 -352h-299l-172 328q-62 116 -116.5 181t-113 94.5t-155.5 29.5v-633
h-266v1397h266z" />
    <glyph glyph-name="afii10029" unicode="&#x41b;" horiz-adv-x="1470" 
d="M838 1397l630 -1397h-280l-465 1075l-449 -1075h-272l619 1397h217z" />
    <glyph glyph-name="afii10030" unicode="&#x41c;" horiz-adv-x="1710" 
d="M397 1397l459 -551l459 551h241v-1397h-270v981h-8l-404 -492h-38l-404 492h-8v-981h-270v1397h243z" />
    <glyph glyph-name="afii10031" unicode="&#x41d;" horiz-adv-x="1573" 
d="M424 1397v-588h725v588h270v-1397h-270v590h-725v-590h-270v1397h270z" />
    <glyph glyph-name="afii10032" unicode="&#x41e;" horiz-adv-x="1739" 
d="M870 1415q217 0 390.5 -89.5t276.5 -258t103 -369.5q0 -196 -100.5 -363.5t-276 -260t-395.5 -92.5q-217 0 -394.5 94t-276.5 258.5t-99 363.5q0 192 99 361t273 262.5t400 93.5zM377 698q0 -139 63 -250t175.5 -172t254.5 -61q215 0 353.5 135t138.5 348
q0 139 -62.5 250.5t-176 172.5t-255.5 61t-255.5 -61.5t-174.5 -172t-61 -250.5z" />
    <glyph glyph-name="afii10033" unicode="&#x41f;" horiz-adv-x="1585" 
d="M1432 1397v-1397h-273v1178h-735v-1178h-270v1397h1278z" />
    <glyph glyph-name="afii10034" unicode="&#x420;" horiz-adv-x="1196" 
d="M694 1397q196 0 318.5 -113.5t122.5 -292.5q0 -181 -124 -293t-327 -112h-260v-586h-270v1397h540zM627 797q108 0 168.5 49.5t60.5 146.5q0 193 -248 193h-184v-389h203z" />
    <glyph glyph-name="afii10035" unicode="&#x421;" horiz-adv-x="1485" 
d="M887 1415q119 0 233 -27t246 -92v-254q-129 74 -238.5 107t-228.5 33q-149 0 -269 -61.5t-186.5 -173.5t-66.5 -249q0 -140 66 -251t186 -171.5t270 -60.5q115 0 219.5 33t263.5 119v-254q-136 -71 -250 -101t-266 -30q-221 0 -395 88t-273.5 253.5t-99.5 362.5
q0 211 102.5 379t282 259t404.5 91z" />
    <glyph glyph-name="afii10036" unicode="&#x422;" horiz-adv-x="1364" 
d="M1313 1397v-211h-496v-1186h-270v1186h-496v211h1262z" />
    <glyph glyph-name="afii10037" unicode="&#x423;" horiz-adv-x="1434" 
d="M293 1397l473 -1094l379 1094h276l-516 -1362q-73 -195 -174.5 -288t-253.5 -93q-124 0 -205 45v238q94 -64 193 -64q63 0 112 36t64 101l-629 1387h281z" />
    <glyph glyph-name="afii10038" unicode="&#x424;" horiz-adv-x="1772" 
d="M1018 1407v-143q200 -1 350 -70.5t231.5 -197.5t81.5 -296q0 -165 -81.5 -293t-232.5 -197.5t-349 -70.5v-149h-266v149q-197 1 -347.5 71.5t-232.5 198.5t-82 291q0 167 81 295.5t231.5 198t349.5 70.5v143h266zM365 702q0 -160 103.5 -252t283.5 -94v691
q-181 0 -284 -91.5t-103 -253.5zM1018 356q181 2 284 92t103 252q0 163 -101.5 255t-285.5 92v-691z" />
    <glyph glyph-name="afii10039" unicode="&#x425;" horiz-adv-x="1563" 
d="M395 1397l385 -473l379 473h336l-547 -674l598 -723h-342l-424 522l-424 -522h-340l592 723l-553 674h340z" />
    <glyph glyph-name="afii10040" unicode="&#x426;" horiz-adv-x="1677" 
d="M424 1397v-1172h715v1172h270v-1172h219v-481h-266v256h-1208v1397h270z" />
    <glyph glyph-name="afii10041" unicode="&#x427;" horiz-adv-x="1343" 
d="M352 1397v-361q0 -134 28.5 -196t92.5 -91.5t176 -29.5q153 0 269 47v631h272v-1397h-272v555q-123 -57 -316 -57q-277 0 -400.5 129t-123.5 422v348h274z" />
    <glyph glyph-name="afii10042" unicode="&#x428;" horiz-adv-x="2073" 
d="M424 1397v-1172h479v1172h271v-1172h475v1172h270v-1397h-1765v1397h270z" />
    <glyph glyph-name="afii10043" unicode="&#x429;" horiz-adv-x="2193" 
d="M424 1397v-1172h479v1172h271v-1172h475v1172h270v-1172h225v-481h-264v256h-1726v1397h270z" />
    <glyph glyph-name="afii10044" unicode="&#x42a;" horiz-adv-x="1550" 
d="M752 852h225q235 0 375.5 -115.5t140.5 -312.5q0 -192 -137.5 -308t-366.5 -116h-508v1186h-438v211h709v-545zM993 211q102 0 161.5 59.5t59.5 153.5q0 97 -61.5 158t-163.5 61h-237v-432h241z" />
    <glyph glyph-name="afii10045" unicode="&#x42b;" horiz-adv-x="1808" 
d="M1655 1397v-1397h-271v1397h271zM424 1397v-545h225q235 0 375.5 -115.5t140.5 -312.5q0 -194 -137.5 -309t-365.5 -115h-508v1397h270zM666 211q102 0 161.5 59.5t59.5 153.5q0 97 -61.5 158t-163.5 61h-238v-432h242z" />
    <glyph glyph-name="afii10046" unicode="&#x42c;" horiz-adv-x="1223" 
d="M424 1397v-545h225q235 0 375.5 -115.5t140.5 -312.5q0 -194 -137.5 -309t-365.5 -115h-508v1397h270zM666 211q102 0 161.5 59.5t59.5 153.5q0 97 -61.5 158t-163.5 61h-238v-432h242z" />
    <glyph glyph-name="afii10047" unicode="&#x42d;" horiz-adv-x="1569" 
d="M672 1415q237 0 419 -93.5t280.5 -260.5t98.5 -375q0 -192 -104 -360.5t-280 -256t-398 -87.5q-288 0 -524 131v260q144 -80 263 -120t232 -40q203 0 346 104t179 279h-701v213h699q-41 170 -183 272.5t-325 102.5q-126 0 -244 -35t-250 -111v258q246 119 492 119z" />
    <glyph glyph-name="afii10048" unicode="&#x42e;" horiz-adv-x="2263" 
d="M1395 1415q217 0 390.5 -89.5t276.5 -258t103 -369.5q0 -194 -99 -360.5t-274.5 -261t-398.5 -94.5q-196 0 -360 75.5t-269 213t-133 311.5h-207v-582h-270v1397h270v-596h207q25 174 130 318t268.5 220t365.5 76zM901 698q0 -140 63 -251t176.5 -171.5t254.5 -60.5
q140 0 253 61.5t175.5 172t62.5 249.5t-62.5 250.5t-176 172.5t-254.5 61q-142 0 -255.5 -61.5t-175 -171.5t-61.5 -251z" />
    <glyph glyph-name="afii10049" unicode="&#x42f;" horiz-adv-x="1333" 
d="M1180 1397v-1397h-271v561h-57q-133 0 -222 -67.5t-167 -217.5l-146 -276h-309l156 285q74 137 146 221.5t157 124.5q-301 89 -301 354q0 192 135.5 302t364.5 110h514zM444 983q0 -96 70 -153.5t193 -57.5h202v418h-200q-126 0 -195.5 -55t-69.5 -152z" />
    <glyph glyph-name="afii10065" unicode="&#x430;" horiz-adv-x="971" 
d="M457 952q180 0 275 -76.5t95 -213.5v-457q0 -53 43 -53q18 0 50.5 15.5t54.5 35.5v-142q-129 -79 -236 -79q-66 0 -101.5 22t-49.5 78q-141 -100 -283 -100q-101 0 -173.5 68t-72.5 163q0 121 72 191t252 122l199 58v43q0 137 -166 137q-85 0 -169 -39t-153 -115v221
q153 121 363 121zM307 250q0 -51 32.5 -82t80.5 -31q81 0 162 74v246q-103 -35 -161.5 -66t-86 -63t-27.5 -78z" />
    <glyph glyph-name="afii10066" unicode="&#x431;" horiz-adv-x="1153" 
d="M324 797q66 85 145.5 120t183.5 35q121 0 220 -61.5t154.5 -173.5t55.5 -246q0 -142 -63.5 -254t-180 -173.5t-268.5 -61.5q-234 0 -363.5 156t-129.5 444q0 166 28 296.5t87 225.5t150.5 161.5t237.5 107t433 65.5l-23 -211l-196 -21q-226 -25 -338 -121t-133 -288z
M332 471q0 -146 62.5 -226.5t180.5 -80.5q124 0 189 79t65 232q0 139 -64.5 217t-176.5 78q-115 0 -185.5 -82t-70.5 -217z" />
    <glyph glyph-name="afii10067" unicode="&#x432;" horiz-adv-x="991" 
d="M551 934q151 0 245.5 -65t94.5 -171q0 -75 -43 -131.5t-115 -81.5q182 -57 182 -213q0 -125 -81.5 -198.5t-225.5 -73.5h-485v934h428zM483 543q81 0 120.5 29.5t39.5 97.5q0 55 -45 81.5t-123 26.5h-113v-235h121zM522 152q154 0 154 129q0 55 -46.5 85.5t-137.5 30.5
h-130v-245h160z" />
    <glyph glyph-name="afii10068" unicode="&#x433;" horiz-adv-x="811" 
d="M786 934v-189h-417v-745h-246v934h663z" />
    <glyph glyph-name="afii10069" unicode="&#x434;" horiz-adv-x="1155" 
d="M487 952h197l340 -764h102v-436h-233v248h-627v-248h-237v436h102zM371 188h413l-206 482z" />
    <glyph glyph-name="afii10070" unicode="&#x435;" horiz-adv-x="1057" 
d="M541 952q206 0 326 -132t120 -365v-37h-661q15 -125 93.5 -192.5t215.5 -67.5q88 0 169.5 30.5t168.5 92.5v-183q-164 -116 -398 -116q-221 0 -361 133t-140 354q0 213 129.5 348t337.5 135zM756 567q-10 102 -62 159.5t-143 57.5q-93 0 -149.5 -55t-71.5 -162h426z" />
    <glyph glyph-name="afii10072" unicode="&#x436;" horiz-adv-x="1462" 
d="M57 938q43 8 76 8q89 0 142 -33t96 -112q29 -56 52.5 -100.5t49 -76t58.5 -48.5t81 -17v375h236v-375q66 0 106.5 32t71.5 89l57 108q45 86 96.5 122t145.5 36q35 0 78 -8v-174h-31q-34 0 -59.5 -13.5t-46.5 -54.5l-47 -90q-26 -50 -57 -78.5t-79 -48.5q113 -33 213 -215
l144 -264h-256l-94 188q-56 111 -109 160t-133 49v-397h-236v397h-6q-73 -2 -124 -46.5t-111 -162.5l-95 -188h-256l138 252q59 106 108 157.5t111 69.5q-84 34 -135 127l-49 90q-23 42 -46 55t-61 13h-29v174z" />
    <glyph glyph-name="afii10073" unicode="&#x437;" horiz-adv-x="901" 
d="M440 952q125 0 210 -31.5t128 -85.5t43 -126q0 -76 -52.5 -135t-139.5 -78q97 -24 154 -85.5t57 -146.5q0 -139 -115 -211.5t-328 -72.5q-92 0 -185 20.5t-142 50.5v185q157 -84 315 -84q95 0 150 32t55 97q0 51 -52 81.5t-149 30.5h-106v164h90q99 0 149.5 28t50.5 91
q0 102 -188 102q-76 0 -160 -20.5t-141 -48.5v165q66 34 167.5 56t188.5 22z" />
    <glyph glyph-name="afii10074" unicode="&#x438;" horiz-adv-x="1120" 
d="M356 934v-576l510 576h131v-934h-233v553l-514 -563h-127v944h233z" />
    <glyph glyph-name="afii10075" unicode="&#x439;" horiz-adv-x="1120" 
d="M356 934v-576l510 576h131v-934h-233v553l-514 -563h-127v944h233zM418 1364q34 -127 162 -127q125 0 160 127h176q-19 -134 -111.5 -222.5t-220.5 -88.5q-133 0 -224 82t-118 229h176z" />
    <glyph glyph-name="afii10076" unicode="&#x43a;" horiz-adv-x="989" 
d="M872 946q23 0 53.5 -3t37.5 -5v-174h-43q-36 0 -58.5 -13.5t-40.5 -48.5l-43 -88q-47 -95 -155 -133q69 -16 122 -68t113 -161l133 -252h-270l-111 219q-48 98 -101 137t-126 39h-14v-395h-246v934h246v-373h14q66 0 109.5 30t74.5 95l54 111q40 82 99 115.5t152 33.5z
" />
    <glyph glyph-name="afii10077" unicode="&#x43b;" horiz-adv-x="963" 
d="M713 0l-228 553l-223 -553h-258l422 952h119l428 -952h-260z" />
    <glyph glyph-name="afii10078" unicode="&#x43c;" horiz-adv-x="1350" 
d="M383 934l301 -522l299 522h213l66 -934h-222l-47 575l-315 -575l-322 580l-43 -580h-221l70 934h221z" />
    <glyph glyph-name="afii10079" unicode="&#x43d;" horiz-adv-x="1141" 
d="M369 934v-365h403v365h246v-934h-246v381h-403v-381h-246v934h246z" />
    <glyph glyph-name="afii10080" unicode="&#x43e;" horiz-adv-x="1174" 
d="M586 952q146 0 265 -61t184 -171t65 -249q0 -145 -62.5 -254t-184 -172t-267.5 -63q-147 0 -267 63t-182.5 172t-62.5 254q0 141 66 250.5t184 170t262 60.5zM332 471q0 -140 68.5 -223.5t183.5 -83.5q120 0 189 80t69 229q0 142 -69.5 219.5t-188.5 77.5
q-112 0 -182 -82t-70 -217z" />
    <glyph glyph-name="afii10081" unicode="&#x43f;" horiz-adv-x="1126" 
d="M1004 934v-934h-246v745h-389v-745h-246v934h881z" />
    <glyph glyph-name="afii10082" unicode="&#x440;" horiz-adv-x="1122" 
d="M604 952q200 0 322.5 -134t122.5 -349q0 -141 -57.5 -252t-163.5 -173t-240 -62q-109 0 -219 55v-508h-246v1405h244v-60q111 78 237 78zM369 217q92 -53 172 -53q116 0 186 83t70 214q0 143 -62.5 224t-177.5 81q-43 0 -83 -14.5t-105 -61.5v-473z" />
    <glyph glyph-name="afii10083" unicode="&#x441;" horiz-adv-x="954" 
d="M577 952q163 0 295 -63v-209q-131 76 -248 76q-126 0 -206 -78.5t-80 -212.5q0 -131 80.5 -211t214.5 -80q100 0 256 66v-199q-145 -59 -299 -59q-227 0 -368.5 130t-141.5 345q0 223 138.5 359t358.5 136z" />
    <glyph glyph-name="afii10084" unicode="&#x442;" horiz-adv-x="961" 
d="M932 934v-189h-330v-745h-246v745h-329v189h905z" />
    <glyph glyph-name="afii10085" unicode="&#x443;" horiz-adv-x="963" 
d="M268 934l221 -502l224 502h264l-645 -1405h-264l297 643l-363 762h266z" />
    <glyph glyph-name="afii10086" unicode="&#x444;" horiz-adv-x="1448" 
d="M842 1397v-463q153 -1 275 -59t190.5 -163.5t68.5 -240.5q0 -134 -68 -241.5t-190 -168t-276 -61.5v-473h-236v473q-153 1 -274.5 60.5t-190.5 167.5t-69 243q0 133 67.5 238.5t191 164.5t275.5 60v463h236zM324 475q0 -132 76 -215.5t206 -85.5v586q-128 -2 -205 -82
t-77 -203zM842 174q131 2 206.5 84.5t75.5 216.5q0 123 -78 203t-204 82v-586z" />
    <glyph glyph-name="afii10087" unicode="&#x445;" horiz-adv-x="1083" 
d="M299 934l233 -293l224 293h295l-375 -459l403 -475h-295l-252 309l-241 -309h-287l387 475l-387 459h295z" />
    <glyph glyph-name="afii10088" unicode="&#x446;" horiz-adv-x="1221" 
d="M369 934v-746h389v746h246v-746h180v-436h-234v248h-827v934h246z" />
    <glyph glyph-name="afii10089" unicode="&#x447;" horiz-adv-x="1071" 
d="M338 934v-264q0 -94 37 -139.5t121 -45.5q64 0 118.5 24.5t87.5 65.5v359h246v-934h-246v381q-106 -82 -268 -82t-252 91t-90 261v283h246z" />
    <glyph glyph-name="afii10090" unicode="&#x448;" horiz-adv-x="1614" 
d="M369 934v-746h315v746h246v-746h315v746h246v-934h-1368v934h246z" />
    <glyph glyph-name="afii10091" unicode="&#x449;" horiz-adv-x="1708" 
d="M369 934v-746h315v746h246v-746h315v746h246v-746h180v-436h-233v248h-1315v934h246z" />
    <glyph glyph-name="afii10092" unicode="&#x44a;" horiz-adv-x="1221" 
d="M602 934v-316h203q166 0 263 -83.5t97 -219.5q0 -146 -100.5 -230.5t-278.5 -84.5h-430v745h-329v189h575zM758 162q74 0 114.5 39t40.5 114q0 72 -45.5 107t-117.5 35h-148v-295h156z" />
    <glyph glyph-name="afii10093" unicode="&#x44b;" horiz-adv-x="1403" 
d="M1280 934v-934h-233v934h233zM369 934v-316h202q166 0 263.5 -83.5t97.5 -219.5q0 -146 -101 -230.5t-278 -84.5h-430v934h246zM524 162q73 0 114.5 39t41.5 114q0 72 -46 107t-118 35h-147v-295h155z" />
    <glyph glyph-name="afii10094" unicode="&#x44c;" horiz-adv-x="987" 
d="M369 934v-316h202q166 0 263.5 -83.5t97.5 -219.5q0 -146 -101 -230.5t-278 -84.5h-430v934h246zM524 162q73 0 114.5 39t41.5 114q0 72 -46 107t-118 35h-147v-295h155z" />
    <glyph glyph-name="afii10095" unicode="&#x44d;" horiz-adv-x="954" 
d="M383 952q147 0 260.5 -60.5t175.5 -171t62 -249.5q0 -143 -63.5 -254.5t-180.5 -173t-268 -61.5q-163 0 -295 57v190q73 -32 132.5 -48.5t131.5 -16.5q121 0 197 58t88 159h-385v164h385q-12 108 -83.5 168.5t-181.5 60.5q-146 0 -266 -74v191q146 61 291 61z" />
    <glyph glyph-name="afii10096" unicode="&#x44e;" horiz-adv-x="1599" 
d="M1018 952q146 0 263 -61t181 -170t64 -250q0 -147 -62 -256t-182 -171t-264 -62q-127 0 -234.5 48t-177.5 138t-88 213h-149v-381h-246v934h246v-365h151q32 177 169.5 280t328.5 103zM770 471q0 -139 65.5 -223t180.5 -84q120 0 186 79.5t66 229.5q0 140 -65 218.5
t-187 78.5q-110 0 -178 -81t-68 -218z" />
    <glyph glyph-name="afii10097" unicode="&#x44f;" horiz-adv-x="1057" 
d="M934 934v-934h-258v332h-43q-83 0 -141.5 -35.5t-106.5 -118.5l-102 -178h-283l123 197q57 89 102 129t111 63q-111 23 -168 90.5t-57 161.5q0 128 104 210.5t270 82.5h449zM367 627q0 -66 45 -106t123 -40h141v287h-141q-84 0 -126 -37.5t-42 -103.5z" />
    <glyph glyph-name="afii10071" unicode="&#x451;" horiz-adv-x="1057" 
d="M541 952q206 0 326 -132t120 -365v-37h-661q15 -125 93.5 -192.5t215.5 -67.5q88 0 169.5 30.5t168.5 92.5v-183q-164 -116 -398 -116q-221 0 -361 133t-140 354q0 213 129.5 348t337.5 135zM756 567q-10 102 -62 159.5t-143 57.5q-93 0 -149.5 -55t-71.5 -162h426z
M336 1321q48 0 81.5 -33.5t33.5 -81.5q0 -47 -33.5 -81.5t-81.5 -34.5q-47 0 -81.5 34.5t-34.5 81.5q0 48 34 81.5t82 33.5zM736 1321q48 0 82 -34t34 -81q0 -48 -34.5 -82t-81.5 -34q-46 0 -80.5 33t-34.5 83q0 48 33.5 81.5t81.5 33.5z" />
    <glyph glyph-name="afii10099" unicode="&#x452;" horiz-adv-x="1106" 
d="M743 551q0 106 -45 165.5t-123 59.5q-113 0 -213 -139v-637h-237v1092h-133v161h133v144h237v-144h343v-161h-343v-287q119 147 291 147q71 0 134.5 -28.5t108 -80.5t62 -126t17.5 -156v-561q0 -198 -82.5 -302t-245.5 -104q-77 0 -145 21v190q47 -14 92 -14
q77 0 113 46.5t36 148.5v565z" />
    <glyph glyph-name="afii10100" unicode="&#x453;" horiz-adv-x="811" 
d="M786 934v-189h-417v-745h-246v934h663zM766 1364l-289 -299h-133l145 299h277z" />
    <glyph glyph-name="afii10101" unicode="&#x454;" horiz-adv-x="954" 
d="M571 952q145 0 291 -61v-191q-120 74 -266 74q-110 0 -182 -62t-82 -167h385v-164h-385q10 -98 85.5 -157.5t198.5 -59.5q71 0 132 16.5t133 48.5v-190q-132 -57 -295 -57q-149 0 -266.5 61t-181.5 173t-64 255q0 140 61 249.5t175 170.5t261 61z" />
    <glyph glyph-name="afii10102" unicode="&#x455;" horiz-adv-x="827" 
d="M426 952q77 0 145 -17.5t144 -55.5v-197q-70 45 -150 72.5t-143 27.5q-53 0 -83 -20t-30 -57q0 -21 25 -42t137 -77q160 -81 224.5 -149.5t64.5 -164.5q0 -135 -94 -212.5t-254 -77.5q-100 0 -186.5 22t-143.5 53v205q180 -100 303 -100q63 0 102 22.5t39 59.5
q0 22 -14 40t-42 37t-175 91q-113 54 -167 117.5t-54 150.5q0 124 97 198t255 74z" />
    <glyph glyph-name="afii10103" unicode="&#x456;" horiz-adv-x="500" 
d="M254 1366q57 0 98 -41t41 -98q0 -55 -40.5 -97.5t-98.5 -42.5q-56 0 -97.5 42.5t-41.5 97.5q0 58 42 98.5t97 40.5zM377 934v-934h-246v934h246z" />
    <glyph glyph-name="afii10104" unicode="&#x457;" horiz-adv-x="508" 
d="M84 1321q48 0 82.5 -32t34.5 -83q0 -49 -35 -82.5t-82 -33.5q-48 0 -82.5 34t-34.5 82q0 46 34.5 80.5t82.5 34.5zM424 1321q49 0 82 -32.5t33 -82.5t-33.5 -83t-81.5 -33q-50 0 -83.5 34t-33.5 82q0 50 34 82.5t83 32.5zM377 934v-934h-246v934h246z" />
    <glyph glyph-name="afii10105" unicode="&#x458;" horiz-adv-x="496" 
d="M254 1366q55 0 96 -41t41 -98q0 -58 -40.5 -99t-96.5 -41t-97.5 42.5t-41.5 97.5q0 58 42 98.5t97 40.5zM377 934v-1012q0 -156 -71 -256.5t-208 -136.5l-114 209q147 35 147 219v977h246z" />
    <glyph glyph-name="afii10106" unicode="&#x459;" horiz-adv-x="1389" 
d="M426 952h119l149 -334h283q165 0 260.5 -83.5t95.5 -219.5q0 -144 -99 -229.5t-269 -85.5h-252l-228 553l-223 -553h-258zM768 457l131 -295q182 0 182 153q0 68 -42 105t-121 37h-150z" />
    <glyph glyph-name="afii10107" unicode="&#x45a;" horiz-adv-x="1622" 
d="M369 934v-350h389v350h246v-350h200q172 0 267.5 -77.5t95.5 -209.5q0 -135 -94.5 -216t-255.5 -81h-459v410h-389v-410h-246v934h246zM1137 174q91 0 134.5 28t43.5 91q0 67 -44.5 92t-135.5 25h-131v-236h133z" />
    <glyph glyph-name="afii10108" unicode="&#x45b;" horiz-adv-x="1100" 
d="M743 0v551q0 106 -45 165.5t-123 59.5q-113 0 -213 -139v-637h-237v1092h-133v161h133v144h237v-144h343v-161h-343v-287q119 147 291 147q71 0 134.5 -28.5t108 -80.5t62 -126t17.5 -156v-561h-232z" />
    <glyph glyph-name="afii10109" unicode="&#x45c;" horiz-adv-x="989" 
d="M872 946q23 0 53.5 -3t37.5 -5v-174h-43q-36 0 -58.5 -13.5t-40.5 -48.5l-43 -88q-47 -95 -155 -133q69 -16 122 -68t113 -161l133 -252h-270l-111 219q-48 98 -101 137t-126 39h-14v-395h-246v934h246v-373h14q66 0 109.5 30t74.5 95l54 111q40 82 99 115.5t152 33.5z
M848 1364l-289 -299h-133l145 299h277z" />
    <glyph glyph-name="afii10110" unicode="&#x45e;" horiz-adv-x="979" 
d="M268 934l221 -502l224 502h264l-645 -1405h-264l297 643l-363 762h266zM325 1364q34 -127 162 -127q125 0 160 127h176q-19 -134 -111.5 -222.5t-220.5 -88.5q-133 0 -224 82t-118 229h176z" />
    <glyph glyph-name="afii10193" unicode="&#x45f;" horiz-adv-x="1135" 
d="M369 934v-746h389v746h246v-934h-322v-248h-236v248h-323v934h246z" />
    <glyph glyph-name="afii10146" unicode="&#x462;" horiz-adv-x="1374" 
d="M573 1397v-180h316v-193h-316v-193h230q235 0 374.5 -113t139.5 -308q0 -187 -137 -298.5t-363 -111.5h-512v1024h-299v193h301v180h266zM811 221q108 0 167.5 49.5t59.5 143.5q0 96 -61 146t-166 50h-238v-389h238z" />
    <glyph glyph-name="afii10194" unicode="&#x463;" horiz-adv-x="1094" 
d="M475 1397v-305h240v-181h-240v-293h203q166 0 263 -84.5t97 -218.5q0 -145 -100.5 -230t-278.5 -85h-430v911h-221v181h221v305h246zM475 162h156q68 0 111.5 37.5t43.5 115.5q0 72 -45.5 107t-117.5 35h-148v-295z" />
    <glyph glyph-name="afii10147" unicode="&#x472;" horiz-adv-x="1739" 
d="M870 1415q213 0 387 -88t278.5 -256t104.5 -373q0 -196 -100.5 -363.5t-276 -260t-395.5 -92.5q-217 0 -393.5 94t-276.5 260.5t-100 361.5q0 196 100.5 363.5t277 260.5t394.5 93zM1354 807q-29 167 -163.5 271t-322.5 104q-184 0 -313 -98t-168 -277h967zM387 592
q32 -169 165 -273t318 -104q123 0 227.5 48.5t172 137t82.5 191.5h-965z" />
    <glyph glyph-name="afii10195" unicode="&#x473;" horiz-adv-x="1169" 
d="M586 952q152 0 268.5 -60.5t179 -170t62.5 -250.5q0 -140 -64.5 -252.5t-182.5 -174.5t-269 -62q-154 0 -268 63.5t-176 174.5t-62 243q0 138 65 251t182 175.5t265 62.5zM838 547q-11 103 -80 167t-174 64q-101 0 -169 -63t-81 -168h504zM334 379q14 -108 81.5 -166.5
t166.5 -58.5q105 0 172 60t84 165h-504z" />
    <glyph glyph-name="afii10148" unicode="&#x474;" horiz-adv-x="1352" 
d="M1212 1417q82 0 146 -20v-230q-48 23 -103 23t-87 -28t-54 -81l-440 -1095h-86l-588 1411h264l365 -926l280 737q79 209 303 209z" />
    <glyph glyph-name="afii10196" unicode="&#x475;" horiz-adv-x="1059" 
d="M432 -18l-426 952h262l224 -541l151 369q42 102 107 146t155 44q85 0 148 -26v-193q-45 25 -95 25q-42 0 -67 -19.5t-47 -68.5l-297 -688h-115z" />
    <glyph glyph-name="afii10050" unicode="&#x490;" horiz-adv-x="1059" 
d="M1034 1569v-391h-610v-1178h-270v1397h651v172h229z" />
    <glyph glyph-name="afii10098" unicode="&#x491;" horiz-adv-x="811" 
d="M786 1130v-385h-417v-745h-246v934h440v196h223z" />
    <glyph glyph-name="uni0492" unicode="&#x492;" horiz-adv-x="1130" 
d="M1106 1397v-219h-610v-381h434v-213h-434v-584h-271v584h-194v213h194v600h881z" />
    <glyph glyph-name="uni0493" unicode="&#x493;" horiz-adv-x="846" 
d="M821 934v-189h-418v-213h265v-176h-265v-356h-245v356h-148v176h148v402h663z" />
    <glyph glyph-name="uni0496" unicode="&#x496;" horiz-adv-x="2064" 
d="M102 1393q31 4 78 4q146 0 228.5 -64t169.5 -246q59 -124 90 -169.5t62.5 -62.5t103.5 -17h14v559h266v-559h14q59 0 102 22.5t77.5 69.5t81.5 155q55 128 106.5 190.5t121 92t165.5 29.5q47 0 78 -4v-215q-91 0 -129 -19.5t-70.5 -65.5t-69.5 -137q-29 -74 -81.5 -136
t-108.5 -85q63 -21 115.5 -68.5t123 -160t162.5 -281.5h232v-481h-267v256h-139l-170 319q-102 188 -172 251t-172 63v-633h-266v633q-107 0 -192 -87t-210 -334l-112 -212h-303l108 191q166 301 250 405.5t174 138.5q-54 21 -105 79t-85 140q-36 90 -68.5 137t-71.5 67
t-131 20v215z" />
    <glyph glyph-name="uni0497" unicode="&#x497;" horiz-adv-x="1544" 
d="M57 938q43 8 76 8q89 0 142 -33t96 -112q29 -56 52.5 -100.5t49 -76t58.5 -48.5t81 -17v375h236v-375q66 0 106.5 32t71.5 89l57 108q45 86 96.5 122t145.5 36q35 0 78 -8v-174h-31q-34 0 -59.5 -13.5t-46.5 -54.5l-47 -90q-26 -50 -57 -78.5t-79 -48.5q114 -33 213 -215
l41 -76h179v-436h-234v248h-98l-94 188q-56 111 -109 160t-133 49v-397h-236v397h-6q-73 -2 -124 -46.5t-111 -162.5l-95 -188h-256l138 252q59 106 108 157.5t111 69.5q-84 34 -135 127l-49 90q-23 42 -46 55t-61 13h-29v174z" />
    <glyph glyph-name="uni049A" unicode="&#x49a;" horiz-adv-x="1413" 
d="M420 1397v-559h14q90 2 137 28t88 83t82 153q57 129 106.5 186t118 83t173.5 26q39 0 67 -4v-215q-82 0 -120.5 -14.5t-67 -50.5t-70.5 -134q-79 -189 -207 -238q98 -41 177.5 -131t168.5 -258l68 -127h227v-481h-266v256h-139l-172 328q-62 116 -116.5 181t-113 94.5
t-155.5 29.5v-633h-266v1397h266z" />
    <glyph glyph-name="uni049B" unicode="&#x49b;" horiz-adv-x="1098" 
d="M872 946q23 0 53.5 -3t37.5 -5v-174h-43q-36 0 -58.5 -13.5t-40.5 -48.5l-43 -88q-47 -95 -155 -133q50 -11 90 -40.5t79.5 -83t98.5 -169.5h178v-436h-233v248h-115l-111 219q-48 98 -101 137t-126 39h-14v-395h-246v934h246v-373h14q66 0 109.5 30t74.5 95l54 111
q40 82 99 115.5t152 33.5z" />
    <glyph glyph-name="uni04A2" unicode="&#x4a2;" horiz-adv-x="1688" 
d="M424 1397v-588h725v588h270v-1172h219v-481h-266v256h-223v590h-725v-590h-270v1397h270z" />
    <glyph glyph-name="uni04A3" unicode="&#x4a3;" horiz-adv-x="1235" 
d="M369 934v-365h403v365h246v-746h180v-436h-233v248h-193v381h-403v-381h-246v934h246z" />
    <glyph glyph-name="uni04AE" unicode="&#x4ae;" horiz-adv-x="1333" 
d="M336 1397l338 -467l342 467h321l-528 -705v-692h-270v694l-531 703h328z" />
    <glyph glyph-name="uni04AF" unicode="&#x4af;" horiz-adv-x="977" 
d="M268 934l224 -541l219 541h262l-363 -815v-590h-237v586l-369 819h264z" />
    <glyph glyph-name="uni04B0" unicode="&#x4b0;" horiz-adv-x="1333" 
d="M336 1397l338 -467l342 467h321l-528 -705v-26h393v-201h-393v-465h-270v465h-408v201h408v28l-531 703h328z" />
    <glyph glyph-name="uni04B1" unicode="&#x4b1;" horiz-adv-x="977" 
d="M268 934l224 -492l219 492h262l-363 -752h291v-182h-291v-471h-237v471h-305v182h305l-369 752h264z" />
    <glyph glyph-name="uni04B2" unicode="&#x4b2;" horiz-adv-x="1636" 
d="M395 1397l385 -473l379 473h336l-547 -674l412 -498h246v-481h-267v256h-135l-424 522l-424 -522h-340l592 723l-553 674h340z" />
    <glyph glyph-name="uni04B3" unicode="&#x4b3;" horiz-adv-x="1155" 
d="M299 934l233 -293l224 293h295l-375 -459l244 -287h206v-436h-233v248h-109l-252 309l-241 -309h-287l387 475l-387 459h295z" />
    <glyph glyph-name="uni04B6" unicode="&#x4b6;" horiz-adv-x="1458" 
d="M352 1397v-361q0 -134 28.5 -196t92.5 -91.5t176 -29.5q153 0 269 47v631h272v-1172h219v-481h-266v256h-225v555q-123 -57 -316 -57q-277 0 -400.5 129t-123.5 422v348h274z" />
    <glyph glyph-name="uni04B7" unicode="&#x4b7;" horiz-adv-x="1196" 
d="M369 934v-264q0 -97 37.5 -141t119.5 -44q66 0 120.5 25.5t86.5 64.5v359h246v-746h180v-436h-233v248h-193v381q-106 -82 -268 -82t-252 91t-90 261v283h246z" />
    <glyph glyph-name="uni04BA" unicode="&#x4ba;" horiz-adv-x="1346" 
d="M993 0v422q0 166 -66 238.5t-212 72.5q-158 0 -287 -49v-684h-272v1397h272v-502q67 27 161.5 43t188.5 16q252 0 371 -124t119 -379v-451h-275z" />
    <glyph glyph-name="uni04BB" unicode="&#x4bb;" horiz-adv-x="1108" 
d="M369 1397v-594h6q119 149 287 149q149 0 240 -98t91 -256v-598h-245v551q0 94 -44.5 149.5t-121.5 55.5q-56 0 -105.5 -32t-107.5 -106v-618h-246v1397h246z" />
    <glyph glyph-name="uni04C0" unicode="&#x4c0;" horiz-adv-x="590" 
d="M430 1397v-1397h-270v1397h270z" />
    <glyph glyph-name="uni04CF" unicode="&#x4cf;" horiz-adv-x="508" 
d="M377 934v-934h-246v934h246z" />
    <glyph glyph-name="uni04D8" unicode="&#x4d8;" horiz-adv-x="1626" 
d="M768 1415q229 0 402.5 -87.5t265.5 -248.5t92 -368q0 -209 -93.5 -379t-258 -260t-381.5 -90q-212 0 -370.5 93t-242.5 264t-84 392h1153q-16 222 -148 337.5t-372 115.5q-270 0 -510 -148v248q133 68 265.5 99.5t281.5 31.5zM391 528q32 -153 142 -238t270 -85
q163 0 278.5 84t155.5 239h-846z" />
    <glyph glyph-name="uni04D9" unicode="&#x4d9;" horiz-adv-x="1057" 
d="M516 -18q-206 0 -326 132t-120 365v37h661q-15 125 -93.5 192.5t-215.5 67.5q-88 0 -169.5 -30.5t-168.5 -92.5v183q162 116 397 116q146 0 261.5 -61t178 -172t62.5 -254q0 -214 -130.5 -348.5t-336.5 -134.5zM301 367q9 -103 61.5 -160t143.5 -57q93 0 149.5 55
t71.5 162h-426z" />
    <glyph glyph-name="uni04E2" unicode="&#x4e2;" horiz-adv-x="1581" 
d="M1163 1739v-176h-739v176h739zM418 1397v-977l866 977h143v-1397h-266v942l-868 -952h-139v1407h264z" />
    <glyph glyph-name="uni04E3" unicode="&#x4e3;" horiz-adv-x="1120" 
d="M928 1290v-176h-740v176h740zM356 934v-576l510 576h131v-934h-233v553l-514 -563h-127v944h233z" />
    <glyph glyph-name="uni04E8" unicode="&#x4e8;" horiz-adv-x="1739" 
d="M870 1415q213 0 387 -88t278.5 -256t104.5 -373q0 -196 -100.5 -363.5t-276 -260t-395.5 -92.5q-217 0 -393.5 94t-276.5 260.5t-100 361.5q0 196 100.5 363.5t277 260.5t394.5 93zM1354 807q-29 167 -163.5 271t-322.5 104q-184 0 -313 -98t-168 -277h967zM387 592
q32 -169 165 -273t318 -104q123 0 227.5 48.5t172 137t82.5 191.5h-965z" />
    <glyph glyph-name="uni04E9" unicode="&#x4e9;" horiz-adv-x="1169" 
d="M586 952q152 0 268.5 -60.5t179 -170t62.5 -250.5q0 -140 -64.5 -252.5t-182.5 -174.5t-269 -62q-154 0 -268 63.5t-176 174.5t-62 243q0 138 65 251t182 175.5t265 62.5zM838 547q-11 103 -80 167t-174 64q-101 0 -169 -63t-81 -168h504zM334 379q14 -108 81.5 -166.5
t166.5 -58.5q105 0 172 60t84 165h-504z" />
    <glyph glyph-name="uni04EE" unicode="&#x4ee;" horiz-adv-x="1434" 
d="M1085 1739v-176h-739v176h739zM293 1397l473 -1094l379 1094h276l-516 -1362q-73 -195 -174.5 -288t-253.5 -93q-124 0 -205 45v238q94 -64 193 -64q63 0 112 36t64 101l-629 1387h281z" />
    <glyph glyph-name="uni04EF" unicode="&#x4ef;" horiz-adv-x="979" 
d="M850 1290v-176h-739v176h739zM268 934l221 -502l224 502h264l-645 -1405h-264l297 643l-363 762h266z" />
    <glyph glyph-name="endash" unicode="&#x2013;" horiz-adv-x="1024" 
d="M1036 598v-209h-1048v209h1048z" />
    <glyph glyph-name="emdash" unicode="&#x2014;" horiz-adv-x="2048" 
d="M2060 598v-209h-2072v209h2072z" />
    <glyph glyph-name="quoteleft" unicode="&#x2018;" horiz-adv-x="504" 
d="M387 1362q-96 -81 -96 -213l2 -29q113 -22 113 -137q0 -62 -43.5 -101.5t-106.5 -39.5q-78 0 -126 59t-48 158q0 129 87 231.5t218 124.5v-53z" />
    <glyph glyph-name="quoteright" unicode="&#x2019;" horiz-adv-x="504" 
d="M246 1415q80 0 128 -59.5t48 -157.5q0 -132 -88.5 -234.5t-216.5 -121.5v53q96 81 96 211l-2 31q-113 21 -113 137q0 59 42.5 100t105.5 41z" />
    <glyph glyph-name="quotesinglbase" unicode="&#x201a;" horiz-adv-x="504" 
d="M246 274q80 0 128 -58.5t48 -158.5q0 -131 -87 -232.5t-218 -123.5v53q96 81 96 211l-2 31q-113 21 -113 137q0 59 42.5 100t105.5 41z" />
    <glyph glyph-name="quotedblleft" unicode="&#x201c;" horiz-adv-x="1014" 
d="M387 1362q-96 -85 -96 -215l2 -27q113 -23 113 -137q0 -62 -43.5 -101.5t-106.5 -39.5q-80 0 -127 60.5t-47 156.5q0 128 86.5 230.5t218.5 125.5v-53zM897 1362q-96 -85 -96 -215l2 -27q112 -22 112 -137q0 -62 -43 -101.5t-106 -39.5q-80 0 -127 59t-47 158
q0 124 85.5 228.5t219.5 127.5v-53z" />
    <glyph glyph-name="quotedblright" unicode="&#x201d;" horiz-adv-x="1014" 
d="M246 1415q80 0 128 -59.5t48 -157.5q0 -132 -88.5 -234.5t-216.5 -121.5v53q96 81 96 211l-2 31q-113 21 -113 137q0 59 42.5 100t105.5 41zM756 1415q80 0 128 -59.5t48 -157.5q0 -132 -88.5 -234.5t-216.5 -121.5v53q96 81 96 211l-2 31q-113 21 -113 137
q0 59 42.5 100t105.5 41z" />
    <glyph glyph-name="quotedblbase" unicode="&#x201e;" horiz-adv-x="1014" 
d="M246 274q80 0 128 -58.5t48 -158.5q0 -131 -87 -232.5t-218 -123.5v53q96 81 96 211l-2 31q-113 21 -113 137q0 59 42.5 100t105.5 41zM756 274q80 0 128 -58.5t48 -158.5q0 -131 -87 -232.5t-218 -123.5v53q96 81 96 211l-2 31q-113 21 -113 137q0 59 42.5 100t105.5 41
z" />
    <glyph glyph-name="dagger" unicode="&#x2020;" horiz-adv-x="1047" 
d="M965 983q17 0 23.5 -18.5t6.5 -59.5v-112q0 -44 -6.5 -61t-21.5 -17l-396 86l115 -1235q0 -37 -51 -37h-217q-29 0 -44.5 7.5t-15.5 29.5l117 1235q-387 -86 -395 -86q-14 0 -21.5 15.5t-7.5 62.5v112q0 48 8.5 63t22.5 15l395 -86l-82 487q0 31 62 31h133q59 0 59 -31
l-80 -487q390 86 396 86z" />
    <glyph glyph-name="daggerdbl" unicode="&#x2021;" horiz-adv-x="1047" 
d="M557 -27l90 -370q4 -13 4 -29q0 -26 -30 -35.5t-99 -9.5q-68 0 -99.5 9t-31.5 34l3 22l91 379q-395 -88 -401 -88q-23 0 -28 31t-5 94q0 62 8 92.5t33 30.5q12 0 391 -90l-86 430l86 428q-379 -90 -391 -90q-25 0 -33 31.5t-8 93.5q0 63 8 93t33 30h2.5t390.5 -88
l-77 325q-17 60 -17 74q0 28 32.5 36.5t98.5 8.5q71 0 101 -10.5t30 -36.5q0 -7 -96 -397l348 78l56 10q21 0 26.5 -30t5.5 -93q0 -62 -9 -93.5t-34 -31.5l-24 4l-367 86l88 -428l-88 -430l303 72q64 16 88 16q25 0 34 -26.5t9 -88.5q0 -78 -6.5 -104.5t-28.5 -26.5
q-14 0 -108 23z" />
    <glyph glyph-name="bullet" unicode="&#x2022;" horiz-adv-x="725" 
d="M362 975q117 0 197 -80.5t80 -196.5q0 -115 -80 -195.5t-197 -80.5q-114 0 -195 80t-81 196q0 114 80.5 195.5t195.5 81.5z" />
    <glyph glyph-name="ellipsis" unicode="&#x2026;" horiz-adv-x="2048" 
d="M342 289q63 0 107.5 -45t44.5 -109q0 -62 -44.5 -107.5t-107.5 -45.5t-108.5 45.5t-45.5 107.5q0 64 46 109t108 45zM1024 289q62 0 108 -45.5t46 -108.5q0 -61 -45.5 -107t-108.5 -46t-108.5 45.5t-45.5 107.5q0 64 46 109t108 45zM1706 289q62 0 108 -45.5t46 -108.5
q0 -61 -45.5 -107t-108.5 -46t-108.5 45.5t-45.5 107.5q0 64 46 109t108 45z" />
    <glyph glyph-name="perthousand" unicode="&#x2030;" horiz-adv-x="2161" 
d="M360 1415q86 0 160.5 -43t118 -118t43.5 -162q0 -86 -43 -161t-117.5 -118t-161.5 -43q-134 0 -228.5 94t-94.5 228q0 87 44 162.5t119.5 118t159.5 42.5zM1266 1415l-953 -1433h-168l953 1433h168zM207 1092q0 -65 46.5 -111.5t106.5 -46.5q62 0 107 44.5t45 113.5
q0 67 -45 113t-109 46q-60 0 -105.5 -47t-45.5 -112zM1053 627q85 0 160.5 -44t118 -118.5t42.5 -161.5q0 -132 -93.5 -226.5t-227.5 -94.5q-87 0 -162 42.5t-118.5 117.5t-43.5 161q0 88 43.5 163t120 118t160.5 43zM1802 627q85 0 161 -44t118.5 -119.5t42.5 -160.5
q0 -86 -43 -160t-119 -117.5t-160 -43.5q-132 0 -227.5 92.5t-95.5 228.5q0 86 44 162t119.5 119t159.5 43zM899 303q0 -68 46 -113t108 -45q63 0 107 45.5t44 112.5q0 64 -43 112t-108 48q-64 0 -109 -48t-45 -112zM1649 303q0 -65 45 -111.5t108 -46.5q62 0 107 44.5
t45 113.5q0 66 -46 113t-108 47q-61 0 -106 -47.5t-45 -112.5z" />
    <glyph glyph-name="guilsinglleft" unicode="&#x2039;" horiz-adv-x="653" 
d="M602 924l-315 -459l315 -457h-242l-317 457l317 459h242z" />
    <glyph glyph-name="guilsinglright" unicode="&#x203a;" horiz-adv-x="653" 
d="M293 924l317 -459l-317 -457h-242l316 457l-316 459h242z" />
    <glyph glyph-name="fraction" unicode="&#x2044;" horiz-adv-x="428" 
d="M776 1415l-956 -1470h-168l956 1470h168z" />
    <glyph glyph-name="Euro" unicode="&#x20ac;" horiz-adv-x="1268" 
d="M815 1415q159 0 346 -53l-41 -232q-150 58 -295 58q-130 0 -212.5 -63t-129.5 -201h568l-31 -164h-569q-5 -20 -5 -60l5 -61h550l-30 -162h-492q38 -130 123 -199t207 -69q151 0 336 115v-246q-97 -54 -184.5 -75t-178.5 -21q-221 0 -370 131t-201 364h-168l31 162h119
q-3 8 -3 51q0 30 5 70h-152l31 164h143q58 231 217.5 361t380.5 130z" />
    <glyph glyph-name="uni20B4" unicode="&#x20b4;" horiz-adv-x="1071" 
d="M510 1415q209 0 323.5 -92t114.5 -260q0 -73 -33 -143h119v-160h-262q-75 -57 -207 -121h469v-162h-647q-43 -60 -43 -123q0 -77 56 -121.5t159 -44.5q96 0 210 47.5t185 116.5v-248q-172 -122 -405 -122q-206 0 -322 98t-116 274q0 65 18 123h-90v162h197q56 56 167 121
h-364v160h602q32 31 53 64.5t21 78.5q0 66 -48.5 104.5t-148.5 38.5q-201 0 -354 -133v242q163 100 346 100z" />
    <glyph glyph-name="afii61352" unicode="&#x2116;" horiz-adv-x="2345" 
d="M385 1397l766 -989v735q0 119 72 192.5t192 73.5h209v-215h-106q-107 0 -107 -123v-1071h-225l-772 993v-993h-260v1397h231zM1923 1057q95 0 178.5 -46.5t130.5 -127t47 -174.5q0 -95 -47 -176t-129 -128t-180 -47q-94 0 -176 46.5t-130 128t-48 176.5q0 93 46.5 174
t129.5 127.5t178 46.5zM1737 709q0 -79 54.5 -135t131.5 -56q82 0 136.5 56t54.5 135t-55 133.5t-136 54.5q-77 0 -131.5 -54.5t-54.5 -133.5zM2271 246v-135h-680v135h680z" />
    <glyph glyph-name="trademark" unicode="&#x2122;" horiz-adv-x="1827" 
d="M735 1466v-133h-254v-684h-151v684h-258v133h663zM1065 1466l172 -604h4l170 604h231v-817h-143v668h-4l-188 -668h-138l-190 672h-4v-672h-144v817h234z" />
    <glyph glyph-name="minus" unicode="&#x2212;" horiz-adv-x="1196" 
d="M1098 834v-222h-1000v222h1000z" />
    <glyph glyph-name="apple" unicode="&#xf8ff;" horiz-adv-x="1618" 
d="M836 1204q45 0 146 35t177 35q93 0 170.5 -38t155.5 -130q-106 -92 -145.5 -169t-39.5 -165q0 -127 72 -229.5t162 -128.5q-39 -123 -125 -256q-133 -199 -264 -199q-53 0 -144.5 32t-154.5 32q-64 0 -147 -33t-136 -33q-155 0 -307 262t-152 516q0 236 116 383.5
t292 147.5q76 0 182.5 -31t141.5 -31zM1149 1618q0 -112 -73 -219t-165 -137q-34 -11 -104 -17q2 152 79 263.5t257 152.5q6 -21 6 -43z" />
    </font>
</defs>
</svg>
